<svg xmlns="http://www.w3.org/2000/svg" viewBox="0 0 500 500"><g id="freepik--Floor--inject-38"><path id="freepik--floor--inject-38" d="M81.82,446.22c-92.88-53.63-92.88-140.58,0-194.2s243.48-53.63,336.36,0,92.88,140.57,0,194.2S174.7,499.84,81.82,446.22Z" style="fill:#f5f5f5"></path></g><g id="freepik--Shadows--inject-38"><polygon id="freepik--Shadow--inject-38" points="201.71 275.79 67.43 353.5 282.38 477.27 416.54 399.56 201.71 275.79" style="fill:#e6e6e6"></polygon><path id="freepik--shadow--inject-38" d="M350.85,277.89c-16.88,9.75-16.88,25.55,0,35.3s44.26,9.75,61.15,0,16.88-25.55,0-35.3S367.74,268.14,350.85,277.89Z" style="fill:#e6e6e6"></path></g><g id="freepik--Table--inject-38"><g id="freepik--table--inject-38"><g id="freepik--table--inject-38"><path d="M350.56,247.88a1.1,1.1,0,0,1,.64-.9,3.45,3.45,0,0,1,3.13,0,1.11,1.11,0,0,1,.65.9l-7.87,46.49h0a.75.75,0,0,1-.45.62,2.4,2.4,0,0,1-2.21,0,.78.78,0,0,1-.46-.62h0Z" style="fill:#455a64"></path><path d="M411.28,247.88a1.1,1.1,0,0,0-.64-.9,3.45,3.45,0,0,0-3.13,0,1.11,1.11,0,0,0-.65.9l7.87,46.49h0a.78.78,0,0,0,.46.62,2.4,2.4,0,0,0,2.21,0,.78.78,0,0,0,.46-.62h0Z" style="fill:#455a64"></path><path d="M383.4,251.41a1.09,1.09,0,0,0-.65-.91,3.43,3.43,0,0,0-3.12,0,1.09,1.09,0,0,0-.65.9l.65,55.31h0a.76.76,0,0,0,.45.62,2.46,2.46,0,0,0,2.21,0,.79.79,0,0,0,.46-.62h0Z" style="fill:#455a64"></path><path d="M420.82,232.57h0c0-5.86-3.83-11.71-11.58-16.18-15.47-8.94-40.57-8.94-56,0-7.74,4.47-11.57,10.32-11.57,16.18h0v3.14h0c.1,5.78,4,11.55,11.61,16,15.48,8.93,40.58,8.93,56.06,0,7.63-4.41,11.51-10.17,11.6-16h0Z" style="fill:#4E44DB"></path><path d="M353.16,216.39c-15.48,8.94-15.48,23.42,0,32.36s40.58,8.94,56.06,0,15.47-23.42,0-32.36S368.64,207.45,353.16,216.39Z" style="fill:#4E44DB"></path><path d="M353.16,216.39c-15.48,8.94-15.48,23.42,0,32.36s40.58,8.94,56.06,0,15.47-23.42,0-32.36S368.64,207.45,353.16,216.39Z" style="fill:#fff;opacity:0.45"></path></g><g id="freepik--Pot--inject-38"><g style="opacity:0.05"><path d="M389.87,225c4.94,2.85,4.94,7.47,0,10.32s-12.94,2.85-17.88,0-4.94-7.47,0-10.32S384.93,222.16,389.87,225Z"></path></g><path d="M373.07,230.81c-4.3-4.39-6.83-15.35-2.63-18.83h21.34c4.19,3.48,1.67,14.43-2.63,18.82l-.12.12-.15.15a4.32,4.32,0,0,1-.39.34.39.39,0,0,1-.1.08,3.92,3.92,0,0,1-.32.25c-.19.13-.37.25-.56.36a14.17,14.17,0,0,1-12.81,0h0c-.19-.11-.37-.23-.56-.36l-.3-.23-.13-.1-.37-.33-.17-.17Z" style="fill:#ebebeb"></path><path d="M389.92,210.58c4.87,2.81,4.87,7.37,0,10.18s-12.76,2.81-17.63,0-4.87-7.37,0-10.18S385.05,207.77,389.92,210.58Z" style="fill:#fafafa"></path><path d="M386.47,212.58c3,1.71,3,4.48,0,6.19a11.86,11.86,0,0,1-10.73,0c-3-1.71-3-4.48,0-6.19A11.86,11.86,0,0,1,386.47,212.58Z" style="fill:#ebebeb"></path><path d="M375.74,215.52a11.86,11.86,0,0,1,10.73,0,4.85,4.85,0,0,1,1.77,1.62,4.87,4.87,0,0,1-1.77,1.63,11.86,11.86,0,0,1-10.73,0,4.87,4.87,0,0,1-1.77-1.63A4.85,4.85,0,0,1,375.74,215.52Z" style="fill:#e0e0e0"></path><path d="M385.82,217.14A24.26,24.26,0,0,0,389.7,212c1.79-3.16,2.12-7.41,1.19-7.93s-4.69,3.71-4.69,3.71a23.1,23.1,0,0,0,.39-5.41c-.16-2.82-.84-5.39-1.65-5.9s-2.62,3-3.39,5.62-1.24,4.7-1.24,4.7a40,40,0,0,0-1.39-5.94c-.94-2.68-1.79-3.28-2.46-3s-1.09,1.52-1.29,5.08a36.3,36.3,0,0,0,.16,5.11s-1.33-1.46-2.8-2.88-2.32-1.77-2.78-1.47-.59,2.71,1.92,7.26a25.2,25.2,0,0,0,4.74,6.23S379.88,219.38,385.82,217.14Z" style="fill:#4E44DB"></path><path d="M385.82,217.14A24.26,24.26,0,0,0,389.7,212c1.79-3.16,2.12-7.41,1.19-7.93s-4.69,3.71-4.69,3.71a23.1,23.1,0,0,0,.39-5.41c-.16-2.82-.84-5.39-1.65-5.9s-2.62,3-3.39,5.62-1.24,4.7-1.24,4.7a40,40,0,0,0-1.39-5.94c-.94-2.68-1.79-3.28-2.46-3s-1.09,1.52-1.29,5.08a36.3,36.3,0,0,0,.16,5.11s-1.33-1.46-2.8-2.88-2.32-1.77-2.78-1.47-.59,2.71,1.92,7.26a25.2,25.2,0,0,0,4.74,6.23S379.88,219.38,385.82,217.14Z" style="opacity:0.30000000000000004"></path></g></g></g><g id="freepik--Carpet--inject-38"><g id="freepik--carpet--inject-38"><polygon points="203.39 276.16 74.72 350.63 280.69 469.23 409.24 394.77 203.39 276.16" style="fill:#4E44DB"></polygon><polygon points="203.39 276.16 74.72 350.63 280.69 469.23 409.24 394.77 203.39 276.16" style="fill:#fff;opacity:0.6000000000000001"></polygon><path d="M280.18,470,74.33,351.12a.77.77,0,0,1-.4-.68.78.78,0,0,1,.4-.68L203,275.47a.8.8,0,0,1,.79,0L409.64,394.32a.82.82,0,0,1,.4.69.8.8,0,0,1-.4.68L281,470a.78.78,0,0,1-.8,0Zm-76.8-192.91L76.31,350.44,280.58,468.38,407.66,395Z" style="fill:#fafafa"></path><path d="M203.38,277a.79.79,0,0,0,.4-1.48l-5.66-3.27a.78.78,0,0,0-1.08.29.79.79,0,0,0,.28,1.08l5.67,3.27A.7.7,0,0,0,203.38,277Z" style="fill:#fafafa"></path><path d="M196.22,281.07a.79.79,0,0,0,.4-1.48L191,276.32a.78.78,0,0,0-1.08.29.79.79,0,0,0,.28,1.08l5.67,3.27A.7.7,0,0,0,196.22,281.07Z" style="fill:#fafafa"></path><path d="M189.07,285.19a.79.79,0,0,0,.39-1.47l-5.66-3.28a.79.79,0,1,0-.79,1.37l5.66,3.28A.82.82,0,0,0,189.07,285.19Z" style="fill:#fafafa"></path><path d="M181.91,289.31a.78.78,0,0,0,.68-.39.79.79,0,0,0-.28-1.08l-5.67-3.28a.8.8,0,0,0-1.08.29.79.79,0,0,0,.29,1.08l5.66,3.28A.82.82,0,0,0,181.91,289.31Z" style="fill:#fafafa"></path><path d="M174.75,293.43a.79.79,0,0,0,.4-1.47l-5.67-3.28a.8.8,0,0,0-1.08.29.79.79,0,0,0,.29,1.08l5.66,3.28A.85.85,0,0,0,174.75,293.43Z" style="fill:#fafafa"></path><path d="M167.59,297.56a.81.81,0,0,0,.69-.4.79.79,0,0,0-.29-1.08l-5.66-3.28a.81.81,0,0,0-1.09.29.79.79,0,0,0,.29,1.08l5.67,3.28A.79.79,0,0,0,167.59,297.56Z" style="fill:#fafafa"></path><path d="M160.43,301.68a.81.81,0,0,0,.69-.4.79.79,0,0,0-.29-1.08l-5.66-3.27a.78.78,0,0,0-1.08.28.81.81,0,0,0,.28,1.09l5.67,3.27A.79.79,0,0,0,160.43,301.68Z" style="fill:#fafafa"></path><path d="M153.28,305.8a.79.79,0,0,0,.39-1.48L148,301.05a.79.79,0,0,0-.79,1.37l5.66,3.27A.8.8,0,0,0,153.28,305.8Z" style="fill:#fafafa"></path><path d="M146.12,309.92a.8.8,0,0,0,.4-1.48l-5.67-3.27a.79.79,0,0,0-.79,1.37l5.66,3.27A.86.86,0,0,0,146.12,309.92Z" style="fill:#fafafa"></path><path d="M139,314a.79.79,0,0,0,.4-1.48l-5.67-3.27a.79.79,0,0,0-.79,1.37l5.66,3.27A.76.76,0,0,0,139,314Z" style="fill:#fafafa"></path><path d="M131.8,318.16a.79.79,0,0,0,.4-1.48l-5.67-3.27a.79.79,0,1,0-.79,1.37l5.67,3.27A.7.7,0,0,0,131.8,318.16Z" style="fill:#fafafa"></path><path d="M124.65,322.28a.79.79,0,0,0,.39-1.47l-5.66-3.28a.79.79,0,0,0-.8,1.37l5.67,3.27A.71.71,0,0,0,124.65,322.28Z" style="fill:#fafafa"></path><path d="M117.49,326.4a.79.79,0,0,0,.39-1.47l-5.66-3.28a.79.79,0,0,0-.8,1.37l5.67,3.28A.82.82,0,0,0,117.49,326.4Z" style="fill:#fafafa"></path><path d="M110.33,330.52a.78.78,0,0,0,.68-.39.79.79,0,0,0-.28-1.08l-5.67-3.28a.79.79,0,1,0-.79,1.37l5.66,3.28A.82.82,0,0,0,110.33,330.52Z" style="fill:#fafafa"></path><path d="M103.17,334.64a.81.81,0,0,0,.69-.39.79.79,0,0,0-.29-1.08l-5.67-3.28a.8.8,0,0,0-1.08.29.79.79,0,0,0,.29,1.08l5.66,3.28A.85.85,0,0,0,103.17,334.64Z" style="fill:#fafafa"></path><path d="M96,338.76a.8.8,0,0,0,.69-.39.79.79,0,0,0-.29-1.08L90.74,334a.79.79,0,1,0-.79,1.36l5.67,3.28A.78.78,0,0,0,96,338.76Z" style="fill:#fafafa"></path><path d="M88.85,342.89a.81.81,0,0,0,.69-.4.79.79,0,0,0-.29-1.08l-5.66-3.27a.79.79,0,1,0-.8,1.37l5.67,3.27A.79.79,0,0,0,88.85,342.89Z" style="fill:#fafafa"></path><path d="M81.7,347a.79.79,0,0,0,.39-1.48l-5.66-3.27a.78.78,0,0,0-1.08.29.79.79,0,0,0,.28,1.08l5.67,3.27A.83.83,0,0,0,81.7,347Z" style="fill:#fafafa"></path><path d="M74.54,351.13a.77.77,0,0,0,.68-.4.79.79,0,0,0-.29-1.08l-5.66-3.27a.78.78,0,0,0-1.08.28.8.8,0,0,0,.29,1.09L74.14,351A.83.83,0,0,0,74.54,351.13Z" style="fill:#fafafa"></path><path d="M415,399.12a.79.79,0,0,0,.4-1.48l-5.66-3.27a.79.79,0,0,0-1.08.28.81.81,0,0,0,.28,1.09l5.67,3.27A.7.7,0,0,0,415,399.12Z" style="fill:#fafafa"></path><path d="M407.83,403.24a.79.79,0,0,0,.39-1.48l-5.66-3.27a.79.79,0,0,0-.79,1.37l5.66,3.27A.71.71,0,0,0,407.83,403.24Z" style="fill:#fafafa"></path><path d="M400.67,407.36a.79.79,0,0,0,.39-1.47l-5.66-3.28a.79.79,0,1,0-.79,1.37l5.66,3.27A.73.73,0,0,0,400.67,407.36Z" style="fill:#fafafa"></path><path d="M393.51,411.48a.78.78,0,0,0,.68-.39.8.8,0,0,0-.28-1.09l-5.67-3.27a.79.79,0,0,0-.79,1.37l5.66,3.27A.73.73,0,0,0,393.51,411.48Z" style="fill:#fafafa"></path><path d="M386.35,415.6a.79.79,0,0,0,.4-1.48l-5.67-3.27a.79.79,0,0,0-.79,1.37l5.66,3.27A.76.76,0,0,0,386.35,415.6Z" style="fill:#fafafa"></path><path d="M379.19,419.72a.8.8,0,0,0,.69-.39.79.79,0,0,0-.29-1.08L373.93,415a.81.81,0,0,0-1.09.29.79.79,0,0,0,.29,1.08l5.67,3.28A.78.78,0,0,0,379.19,419.72Z" style="fill:#fafafa"></path><path d="M372,423.84a.79.79,0,0,0,.39-1.47l-5.66-3.27a.78.78,0,0,0-1.08.28.79.79,0,0,0,.28,1.08l5.67,3.28A.82.82,0,0,0,372,423.84Z" style="fill:#fafafa"></path><path d="M364.88,428a.78.78,0,0,0,.68-.39.79.79,0,0,0-.28-1.08l-5.67-3.28a.79.79,0,1,0-.79,1.37l5.66,3.28A.82.82,0,0,0,364.88,428Z" style="fill:#fafafa"></path><path d="M357.72,432.09a.82.82,0,0,0,.69-.4.8.8,0,0,0-.29-1.08l-5.67-3.27a.79.79,0,1,0-.79,1.36l5.66,3.28A.86.86,0,0,0,357.72,432.09Z" style="fill:#fafafa"></path><path d="M350.56,436.21a.79.79,0,0,0,.4-1.48l-5.67-3.27a.78.78,0,0,0-1.08.28.8.8,0,0,0,.29,1.09l5.67,3.27A.79.79,0,0,0,350.56,436.21Z" style="fill:#fafafa"></path><path d="M343.4,440.33a.81.81,0,0,0,.69-.4.79.79,0,0,0-.29-1.08l-5.66-3.27a.8.8,0,0,0-1.09.29.79.79,0,0,0,.29,1.08l5.67,3.27A.79.79,0,0,0,343.4,440.33Z" style="fill:#fafafa"></path><path d="M336.25,444.45a.79.79,0,0,0,.39-1.48L331,439.7a.78.78,0,0,0-1.08.29.79.79,0,0,0,.28,1.08l5.67,3.27A.8.8,0,0,0,336.25,444.45Z" style="fill:#fafafa"></path><path d="M329.09,448.57a.77.77,0,0,0,.68-.4.79.79,0,0,0-.29-1.08l-5.66-3.27a.78.78,0,0,0-1.08.29.79.79,0,0,0,.28,1.08l5.67,3.27A.73.73,0,0,0,329.09,448.57Z" style="fill:#fafafa"></path><path d="M321.93,452.69a.78.78,0,0,0,.68-.39.81.81,0,0,0-.28-1.09l-5.67-3.27a.79.79,0,1,0-.79,1.37l5.66,3.27A.76.76,0,0,0,321.93,452.69Z" style="fill:#fafafa"></path><path d="M314.77,456.81a.79.79,0,0,0,.4-1.47l-5.67-3.28a.79.79,0,0,0-.79,1.37l5.66,3.27A.76.76,0,0,0,314.77,456.81Z" style="fill:#fafafa"></path><path d="M307.61,460.93a.8.8,0,0,0,.69-.39.79.79,0,0,0-.29-1.08l-5.67-3.28a.79.79,0,1,0-.79,1.37l5.67,3.28A.78.78,0,0,0,307.61,460.93Z" style="fill:#fafafa"></path><path d="M300.45,465.05a.8.8,0,0,0,.69-.39.79.79,0,0,0-.29-1.08l-5.66-3.28a.81.81,0,0,0-1.09.29.8.8,0,0,0,.29,1.08l5.67,3.28A.78.78,0,0,0,300.45,465.05Z" style="fill:#fafafa"></path><path d="M293.3,469.17a.79.79,0,0,0,.39-1.47L288,464.42a.79.79,0,0,0-.8,1.37l5.67,3.28A.82.82,0,0,0,293.3,469.17Z" style="fill:#fafafa"></path><path d="M286.14,473.29a.78.78,0,0,0,.68-.39.79.79,0,0,0-.28-1.08l-5.67-3.27a.79.79,0,1,0-.79,1.36l5.66,3.28A.82.82,0,0,0,286.14,473.29Z" style="fill:#fafafa"></path><path d="M254.85,455.23a.83.83,0,0,0,.4-.11l128.66-74.28a.8.8,0,0,0,.29-1.08.79.79,0,0,0-1.09-.29L254.45,453.75a.8.8,0,0,0,.4,1.48Z" style="fill:#fafafa"></path><path d="M229.12,440.37a.73.73,0,0,0,.4-.11L358.18,366a.8.8,0,0,0,.29-1.08.81.81,0,0,0-1.09-.29L228.72,438.89a.81.81,0,0,0-.28,1.09A.78.78,0,0,0,229.12,440.37Z" style="fill:#fafafa"></path><path d="M203.39,425.51a.73.73,0,0,0,.4-.11l128.66-74.28a.79.79,0,0,0,.29-1.08.81.81,0,0,0-1.09-.29L203,424a.79.79,0,0,0-.28,1.08A.78.78,0,0,0,203.39,425.51Z" style="fill:#fafafa"></path><path d="M177.66,410.65a.82.82,0,0,0,.4-.1l128.66-74.29a.79.79,0,0,0,.29-1.08.81.81,0,0,0-1.09-.29L177.26,409.18a.79.79,0,0,0-.28,1.08A.78.78,0,0,0,177.66,410.65Z" style="fill:#fafafa"></path><path d="M151.93,395.8a.83.83,0,0,0,.4-.11L281,321.41a.79.79,0,0,0,.28-1.08.78.78,0,0,0-1.08-.29L151.53,394.32a.8.8,0,0,0,.4,1.48Z" style="fill:#fafafa"></path><path d="M126.2,380.94a.73.73,0,0,0,.4-.11l128.66-74.28a.79.79,0,0,0-.8-1.37L125.8,379.46a.79.79,0,0,0-.28,1.08A.77.77,0,0,0,126.2,380.94Z" style="fill:#fafafa"></path><path d="M100.47,366.08a.76.76,0,0,0,.4-.11l128.66-74.28a.79.79,0,0,0,.28-1.08.79.79,0,0,0-1.08-.29L100.07,364.6a.8.8,0,0,0-.28,1.09A.78.78,0,0,0,100.47,366.08Z" style="fill:#fafafa"></path><path d="M306.31,455.23a.75.75,0,0,0,.56-.23.8.8,0,0,0,.24-.56V425.68l37.64,7.24a.8.8,0,0,0,.94-.78l0-28.73,37.65,7.24a.81.81,0,0,0,.66-.17.79.79,0,0,0,.29-.61V380.15a.8.8,0,0,0-1.59,0v28.76l-37.65-7.24a.79.79,0,0,0-.65.17.76.76,0,0,0-.29.61l0,28.73-37.64-7.24a.78.78,0,0,0-.65.17.76.76,0,0,0-.29.61v28.93l-50.67-.06h0a.79.79,0,1,0,0,1.58l51.46.06Z" style="fill:#fafafa"></path><path d="M254.84,425.51a.79.79,0,0,0,.56-.23.8.8,0,0,0,.24-.56V396l37.63,7.25a.8.8,0,0,0,1-.78l0-28.74,37.65,7.25a.81.81,0,0,0,.66-.17.78.78,0,0,0,.28-.61V350.44a.79.79,0,1,0-1.58,0V379.2L293.61,372a.76.76,0,0,0-.65.16.78.78,0,0,0-.29.61l0,28.74L255,394.23a.79.79,0,0,0-.65.16.8.8,0,0,0-.29.62v28.92l-50.67-.05h0a.79.79,0,0,0,0,1.58l51.46.05Z" style="fill:#fafafa"></path><path d="M203.37,395.8a.79.79,0,0,0,.79-.79V366.25l37.64,7.24a.79.79,0,0,0,.65-.16.83.83,0,0,0,.29-.62l0-28.73,37.65,7.24a.77.77,0,0,0,.94-.77V320.72a.79.79,0,0,0-1.58,0v28.77l-37.65-7.25a.79.79,0,0,0-.65.17.76.76,0,0,0-.29.61l0,28.74-37.64-7.24a.79.79,0,0,0-.65.16.78.78,0,0,0-.29.61v28.93l-50.67-.06h0a.8.8,0,0,0,0,1.59l51.46.05Z" style="fill:#fafafa"></path><path d="M151.9,366.09a.79.79,0,0,0,.79-.79V336.54l37.63,7.24a.81.81,0,0,0,.66-.17.79.79,0,0,0,.29-.61l0-28.73L229,321.51a.84.84,0,0,0,.66-.17.78.78,0,0,0,.28-.61V291a.79.79,0,0,0-1.58,0v28.77l-37.65-7.25a.81.81,0,0,0-.66.17.78.78,0,0,0-.28.61l0,28.73-37.63-7.24a.79.79,0,0,0-.65.17.76.76,0,0,0-.29.61V364.5l-50.67-.05h0a.8.8,0,0,0,0,1.59l51.46,0Z" style="fill:#fafafa"></path></g></g><g id="freepik--Character--inject-38"><g id="freepik--character--inject-38"><path id="freepik--shadow--inject-38" d="M300.86,401.1a9,9,0,0,1,4.11-.92,16.57,16.57,0,0,0,2.53.26.86.86,0,0,0,.74-.32.94.94,0,0,0,0-.72c-.08-.35-.15-.69-.22-1a5,5,0,0,1-.17-1.68,2.17,2.17,0,0,1,.65-1.26,8.77,8.77,0,0,0,3-4A7,7,0,0,0,312,389c2.16.29,4.33.64,6.48,1a55.21,55.21,0,0,0,6.29,1.28A109.3,109.3,0,0,1,336.61,393c3.95.68,8.28,1.59,10.7,4.78.74,1,1.25,2.13,2,3.13a4.17,4.17,0,0,0,3,1.89,5.57,5.57,0,0,0,3.41-1.6,18.52,18.52,0,0,0,4.07-4,6.25,6.25,0,0,0,1-5.43c-.78-2.22-3.06-3.49-5.17-4.53-5-2.42-10-4.68-15.06-6.89-3.92-1.72-6.62-4.54-10.52-6.4a61,61,0,0,0-13.72-4.32c-10.12-2.13-20.61-3-30.56-5.59-10.59-2.72-21-5.64-31.73-7.43a157.76,157.76,0,0,1-32.33-9.48l-1.25-.5c-16.06-6.48-31.51-16.88-48.53-20.48a72.13,72.13,0,0,0-29.52-.12c-2.16.45-4.6,1.25-5.41,3.3-1.11,2.81,1.54,5.52,3.49,7.83,6,7.11,6.85,17.37,12.12,25.07,5.41,7.92,15.82,14.8,24.65,18.56,13.42,5.72,23,9,36.83,13.77,6.93,2.38,16.72,4.26,23.13,7.81,8.53,4.71,18.81,11,26.89,16.42,9.51,6.4,21.06,12.17,32.47,14,6.22,1,12.92.44,18.27-2.88.76-.48,1.59-1.2,1.44-2.09s-1.26-1.34-2.19-1.56L308.46,425c-.56-.13-1.25-.43-1.23-1s.64-.78,1.15-.91a6,6,0,0,0,2.26-.91,1.92,1.92,0,0,0,.71-2.16c-.44-1-1.75-1.1-2.82-1.09-8.26.09-16.77-.25-24.3-3.64-1.94-.87-3.65-1.85-3.8-4.09a9.25,9.25,0,0,1,2.86-7.37,14.59,14.59,0,0,1,2.88-1.82c.76-.4,2.63-1.31,2.63-1.31a12.61,12.61,0,0,0,1.94.85A17.13,17.13,0,0,0,300.86,401.1Z" style="opacity:0.15"></path><path d="M167.27,251.14c2,1,3.77,1.75,5.14,3.6a9.78,9.78,0,0,1,1.81,7c-.26,2-1.17,4.33-1.17,6.33,0,2.16,1,5.42,1.77,8.05,2.9,9.9,7,19.14,11.27,28.48,3.86,8.35,8.44,17,10.22,26.13,10.24,1.84,20.7,4.52,25.38,5.55a36,36,0,0,1,11,1.54c15.81,5.78,17.52,18.79,22,26.68L243,376.06c-16-9.05-50.31-25-58.77-29s-11.42-4.71-13.57-8.34c-2-3.32-3-7.4-3.86-11.09-2.44-10.34-3.24-21.79-5.19-32.23-1.05-5.59-2.08-11.17-3.16-16.75a55.39,55.39,0,0,0-1.66-6.72,29,29,0,0,0-4.48-8.19c-3.14-4.22-6.41-8.32-9.32-12.73a16.74,16.74,0,0,1-2.68-5.52,14,14,0,0,1,.94-7.61c.83-2.29,1.62-4.52,2.38-6.83a4,4,0,0,1,1-1.93c1.58-1.35,3.88.23,4.87,1.58a28.13,28.13,0,0,0,2,2.89,13.56,13.56,0,0,0,1.83,1.45,18.64,18.64,0,0,1,4.82,5.38c1.25,2.12,2.05,4.41,3.48,6.43A14.48,14.48,0,0,0,167.27,251.14Z" style="fill:#ffa8a7"></path><path d="M170.84,308.22,176.7,282c-.66-1.93-1.3-3.87-1.88-5.85-.15-.52-.31-1.08-.48-1.64l-9.45,29.71Z" style="fill:#f28f8f"></path><path d="M195.9,366.93l26.92,8.24,16.91-33.93a19.58,19.58,0,0,0-10.17-4.67c-4.24-.8-5.75-.57-8.93-1.23s-8.29-1.79-8.29-1.79c-7.87-1.89-11.79-2.51-15.64-3.29-1.7-9.32-6.1-17.14-13.07-31.06a37.7,37.7,0,0,1-20.74,4.47S164,314.33,165,324s1.45,25.92,5.77,30.85S188.14,364.56,195.9,366.93Z" style="fill:#37474f"></path><path d="M229.33,345.39c-6.94-5.66-18.3-2.19-18.3-2.19s-5.35-1.2-9.14-1.92l0-.1c-.06,0-.82-.08-2-.25l-.7-.11h0c-4.6-.72-13.51-2.25-13.51-2.25s2.3-4.07,2.61-11.38c.18-4.19.33-12.33.24-18.16-1.47-2.95-3.12-6.18-5-9.83a37.4,37.4,0,0,1-18.6,4.55c-1,2.92-1.62,4.86-1.62,4.86l1,9.81s1.56,6.06,2.3,9.2c.87,3.69,1.9,7.77,3.86,11.09,2.15,3.63,5.11,4.35,13.57,8.34l.46.21.56.27.92.43.7.33.77.36.77.36,3.35,1.58.45.21,1.57.74.42.2,2,.92.14.07,2.25,1.07.08,0,1.06-4,.23.39,12.59,2.49S236.27,351,229.33,345.39Z" style="fill:#263238"></path><path d="M236.2,348.84l-8.28,19.29-8.7,20.28c-26.39-9-56.87-24.8-62.73-32.61-3.05-4.07,2.23-25.38,8-44.86,4.65-15.72,9.61-30.25,10.75-33.56h0l.1-.27a1.43,1.43,0,0,0-.49-1c-.78-2.63-1.78-5.9-1.78-8.05,0-2,.91-4.33,1.17-6.33a9.72,9.72,0,0,0,.06-1.62,22.49,22.49,0,0,1,2.52-.45c2-.19,3.86-.65,5.82-.82,3.64-.31,8.2.93,9.59,4.69a10.78,10.78,0,0,1,.47,4.93c-.06.47-.13.95-.21,1.42-.77,4.31-3.43,8.3-4.14,12.67-.83,6.31-1.22,14.71-1.67,23.26-.72,14-1.59,28.49-4.82,34.87a193.54,193.54,0,0,1,28,5.4C224,341.54,236.2,348.84,236.2,348.84Z" style="fill:#ffa8a7"></path><path d="M184,375.17c13.36,6.25,26.24,13.23,36.17,13.73S237,348.26,237,348.26c-6.3-2.82-11.26-4.14-16.56-4.31s-8.59,1.3-10.68,1.44-4.88-1.6-12-2.8a96,96,0,0,0-15.11-2.09s2.94-7.29,3.19-21.28c0,0-14.67,4-22.57-4.15a126.29,126.29,0,0,0-5.66,18.47A104.77,104.77,0,0,0,155.09,351a10.12,10.12,0,0,0,3,8C163.2,364.29,174.57,370.75,184,375.17Z" style="fill:#455a64"></path><path d="M174.22,261.76c-.26,2-1.16,4.33-1.17,6.33,0,2.16,1,5.42,1.78,8.05a1.43,1.43,0,0,1,.49,1,30.85,30.85,0,0,0-.5-6.42c-.38-2.92,1.51-7.38,1.21-10.89-.56.09-1.14.19-1.75.33A9.68,9.68,0,0,1,174.22,261.76Z" style="fill:#f28f8f"></path><path d="M169.23,342.47a27.31,27.31,0,0,0,13.42-2h0a42,42,0,0,0,1.86-7.21C180.93,339.45,169.23,342.47,169.23,342.47Z" style="fill:#37474f"></path><path d="M315.17,334.06c-4.08-9.54-9.09-12.07-20.11-12.81L302,351.1s10.4,24.87,12.56,29.43l14.4-9.67S321.29,348.35,315.17,334.06Z" style="fill:#ffa8a7"></path><path d="M293.81,320.83c8.14-.23,14.39,1.44,17.8,5.05s10.3,21.89,10.3,21.89a58.11,58.11,0,0,1-18.47,9.72l-4.54-9.72Z" style="fill:#f5f5f5"></path><path d="M279.45,320.4s-16.23,3-20.58,5.26c-4.85,2.48-7.16,18.82-10.44,23.6a44,44,0,0,0-8.79-8.47c-3.16-.29-13.89,4.56-19.9,16.31-6.39,12.5-5.12,25.11-1,32.08,9.63,3,21.07,7,40.29,5.56,8.77-.65,21.38-7.9,27.43-12.39,3.94-2.91,5.64-4.32,8.87-6.93,13.59-2.8,14.07-14.64,11.63-24.68-2.92-12-3.73-19.14-8.49-26.94C296.42,320.35,288.78,319.21,279.45,320.4Z" style="fill:#4E44DB"></path><path d="M279.45,320.4s-16.23,3-20.58,5.26c-4.85,2.48-7.16,18.82-10.44,23.6a44,44,0,0,0-8.79-8.47c-3.16-.29-13.89,4.56-19.9,16.31-6.39,12.5-5.12,25.11-1,32.08,9.63,3,21.07,7,40.29,5.56,8.77-.65,21.38-7.9,27.43-12.39,3.94-2.91,5.64-4.32,8.87-6.93,13.59-2.8,14.07-14.64,11.63-24.68-2.92-12-3.73-19.14-8.49-26.94C296.42,320.35,288.78,319.21,279.45,320.4Z" style="opacity:0.35000000000000003"></path><path d="M290.06,374.83c-2,2.25-9,3.5-14.66.95-4.95-2.25-7.89-8.18-7.72-12.77,0,0-2.37,10.2,6.85,14.31C283,381.11,289.85,376.1,290.06,374.83Z" style="opacity:0.1"></path><path d="M305.16,273.31a20.3,20.3,0,0,0-15.22,6.86,36.07,36.07,0,0,0,2.46-3.44c.84-2.33-.37-2.51-2.11-2.75-6.53-.91-13.4,4.94-16.49,10.38a19,19,0,0,0-1.91,14.2c1.7,6.18,6.63,11,8.58,17.12a13.55,13.55,0,0,0,1,2.73c1,1.7,3.29,2.28,4.58.53,1.06-1.45.84-4.36,1-6.05.26-2.92.44-5.86.56-8.81a20.39,20.39,0,1,0,17.54-30.77Z" style="fill:#263238"></path><path d="M283.84,308.22l-4.91,13.64h0c-4.53,1-4.47,7.17-2.62,11.43,2.79,6.44,6.63,10.94,10.57,12.9,3.5,1.74,10.55,3.09,11.64-1.92,1.55-7.09-2.12-16.4-2.12-16.4l.38-1Z" style="fill:#ffa8a7"></path><path d="M314.22,285.06l-1.37.63s-14.5-8-22.61-3.55S282,297,281.17,296c-1.18-1.43-6-2.34-8.35,1.91-2.18,3.9.52,9.29,3.42,11.21a4.12,4.12,0,0,0,1,.52,8,8,0,0,0,3.31.66,3.32,3.32,0,0,0,3.32-2.1h0l1.62,5.55a27.72,27.72,0,0,0,2.71,8c1.54,1.68,6,4.45,6.89,4.53l1.42.55c4.32,1.45,8.79,2.81,11.33,2.15s7.82-3.5,10.49-18C321.44,293.86,317.17,287.5,314.22,285.06Z" style="fill:#ffa8a7"></path><path d="M277.86,290.22c0-.21,0-.4,0-.59a20.52,20.52,0,0,1,1.17-5.52,21.64,21.64,0,0,1,36.61-7.31c3.73,4.14,1.7,10.72-.13,15.32-1.33,3.35-4.22,6.24-7.78,6.79a1.55,1.55,0,0,1-1.55-.39,1.71,1.71,0,0,1-.17-1q.17-2.87.31-5.75a24,24,0,0,1-6.94,7.35,24.62,24.62,0,0,1-7.05,3.37c-1.47.43-3,.91-4.47,1.25a3.49,3.49,0,0,1-3.19-.58,4.39,4.39,0,0,1-1-1.84,21,21,0,0,0-1.78-4.24,4.58,4.58,0,0,0-1.44-1.56,8.6,8.6,0,0,0-1.8-.58C277.78,293.74,277.78,291.75,277.86,290.22Z" style="fill:#263238"></path><path d="M285.11,311.86s.36,8.28,2.14,10.89a16.68,16.68,0,0,0,8.47,6.19l1.06-2.07a33.66,33.66,0,0,1-3.54-1.6,20.74,20.74,0,0,1-3.86-2.7C287.25,320.58,285.55,313.18,285.11,311.86Z" style="fill:#f28f8f"></path><path d="M295.71,326.44s-3.76,10.43-5.17,12.2c-.88,1.1-2.79.73-4,.15,0,0,2.56,2.2,4.43.46s5.84-12.38,5.84-12.38Z" style="fill:#f28f8f"></path><path d="M303.43,308.35a1.88,1.88,0,0,1-2,1.81,1.94,1.94,0,1,1,2-1.81Z" style="fill:#263238"></path><path d="M302.66,302.44l-4.42,1.09A2.4,2.4,0,0,1,300,300.7,2.23,2.23,0,0,1,302.66,302.44Z" style="fill:#263238"></path><path d="M299.55,316.84l6.53,3a3.53,3.53,0,0,1-4.71,1.9A3.77,3.77,0,0,1,299.55,316.84Z" style="fill:#b16668"></path><path d="M299.3,317.83a3.71,3.71,0,0,0,2.07,3.9,3.4,3.4,0,0,0,1.2.29,3.33,3.33,0,0,0,.09-.78A3.41,3.41,0,0,0,299.3,317.83Z" style="fill:#f28f8f"></path><path d="M318,305l-4.13-2a2.2,2.2,0,0,1,3-1.13A2.41,2.41,0,0,1,318,305Z" style="fill:#263238"></path><path d="M316.32,308.35a1.87,1.87,0,1,1-1.74-2.06A1.9,1.9,0,0,1,316.32,308.35Z" style="fill:#263238"></path><polygon points="308.77 306.65 307.01 317.82 312.59 317.11 308.77 306.65" style="fill:#f28f8f"></polygon><path d="M280.31,274.9a8.42,8.42,0,0,0-7.63,3.51c-2.92,4.24-1.49,10.44-4.5,14.61a8.18,8.18,0,0,1-5.87,3.32c-1.82.16-3.85-.26-5.35.78a4.9,4.9,0,0,0-1.78,3.8c-.1,1.44.12,2.9,0,4.34-.39,4.42-4.2,8.07-8.52,9.08a11.06,11.06,0,0,1-9.7-2c-.5-.4-1-1.07-.66-1.63s.84-.52,1.33-.64a5,5,0,0,0,3.42-4.55,8.66,8.66,0,0,0-1.06-4.45,33,33,0,0,1-1.72-4.11c-.87-2.5-1.76-5.16-1.16-7.73.8-3.43,4.13-5.77,7.55-6.61,2-.48,4-.59,5.94-1.12a7.2,7.2,0,0,0,4.74-3.43c.83-1.73.55-3.76.8-5.66a11.8,11.8,0,0,1,7.08-8.87,17.42,17.42,0,0,1,11.62-.51c5.09,1.42,10.6,4.46,13.67,8.87a5.08,5.08,0,0,1,1.17,3.7c-.63,3.21-4.46,1.26-6.12.32A7.91,7.91,0,0,0,280.31,274.9Z" style="fill:#263238"></path><path d="M263.66,324c-12.19,3-16.55,8.23-18.07,27.89-.74,9.6-2.93,32.54-2.8,40.05.13,6.91,2.62,8.8,6.59,11.7,6.17,4.51,36.1,21.58,43.84,24.23.81.28,1.64.53,2.46.75a22.91,22.91,0,0,0,5.1.94,28.94,28.94,0,0,0,5.18-.29,29.24,29.24,0,0,0,9.7-3.2,3,3,0,0,0,1-.74,1.09,1.09,0,0,0,.14-1.17,1.55,1.55,0,0,0-1.25-.57c-3.51-.37-7.11.24-10.55-.56a13.3,13.3,0,0,1-3-1.09,7.39,7.39,0,0,1-2.5-1.68c-.88-1.17.94-1.24,1.66-1.34a24,24,0,0,0,3-.59c1.78-.5,3.81-1.55,3.68-3.69a.45.45,0,0,0-.15-.36.49.49,0,0,0-.3-.06,21.78,21.78,0,0,1-4.27.08c-1.15-.2-2.33-.27-3.49-.49-2.63-.49-5.25-1.39-8-1.17-3.48.29-6.58-2.67-9.13-4.69-4.75-3.79-8.09-7.24-12.39-10.79l-7.26-6L266,355.7S270.31,330.31,263.66,324Z" style="fill:#ffa8a7"></path><path d="M265,323.61c-7.22,1.05-13.48,3.9-16.41,10.45s-4.73,23.43-4.73,23.43,4.22,3.67,11.88,4.18S266.3,361,266.3,361s1.66-13.29,2.17-18.32S269.39,329.45,265,323.61Z" style="fill:#f5f5f5"></path><g id="freepik--Tablet--inject-38"><path id="freepik--shadow--inject-38" d="M317.31,421.46l36.14,20.86a2.12,2.12,0,0,0,1.93,0L406,413.09a.59.59,0,0,0,0-1.12l-36.14-20.86a2.12,2.12,0,0,0-1.93,0l-50.64,29.23A.59.59,0,0,0,317.31,421.46Z" style="opacity:0.15"></path><g id="freepik--Device--inject-38"><path d="M321.11,417.52l32.31,18.63a1.67,1.67,0,0,0,1.51,0l49.13-28.36a.46.46,0,0,0,0-.87l-32.32-18.63a1.67,1.67,0,0,0-1.51,0l-49.12,28.36A.46.46,0,0,0,321.11,417.52Zm45.71-25.62a1.07,1.07,0,0,1,1.08.12L398,409.38a.4.4,0,0,1,0,.75l-39.06,22.55a1.48,1.48,0,0,1-1.3,0l-30.08-17.36a.39.39,0,0,1,0-.74Z" style="fill:#455a64"></path><path d="M339.89,427a3.08,3.08,0,0,1-1.5-.36,1.19,1.19,0,0,1-.69-1,1.2,1.2,0,0,1,.69-1,3.28,3.28,0,0,1,3,0,1.2,1.2,0,0,1,.69,1,1.19,1.19,0,0,1-.69,1A3.07,3.07,0,0,1,339.89,427Zm0-2.24a2.55,2.55,0,0,0-1.26.3.73.73,0,0,0-.45.58.75.75,0,0,0,.45.59h0a2.84,2.84,0,0,0,2.51,0,.75.75,0,0,0,.45-.59.73.73,0,0,0-.45-.58A2.54,2.54,0,0,0,339.89,424.74Z" style="fill:#e6e6e6"></path><path d="M404.15,407a1.68,1.68,0,0,1,.66,1.25v1.88a1.65,1.65,0,0,1-.75,1.31l-49.13,28.36a1.37,1.37,0,0,1-.55.17h-.2v-3.63h0l.3,0a1.27,1.27,0,0,0,.45-.16l49.13-28.36C404.44,407.57,404.47,407.22,404.15,407Z" style="fill:#37474f"></path><path d="M366.82,391.9a1.07,1.07,0,0,1,1.08.12L398,409.38a.4.4,0,0,1,0,.75l-39.06,22.55a1.48,1.48,0,0,1-1.3,0l-30.08-17.36a.39.39,0,0,1,0-.74Z" style="fill:#4E44DB"></path><path d="M366.82,391.9a1.07,1.07,0,0,1,1.08.12L398,409.38a.4.4,0,0,1,0,.75l-39.06,22.55a1.48,1.48,0,0,1-1.3,0l-30.08-17.36a.39.39,0,0,1,0-.74Z" style="fill:#fafafa"></path><path d="M384.49,412.65s.06.05.06.08,0,0-.05.06l-.35.21-.12,0a.25.25,0,0,1-.13,0,1.29,1.29,0,0,1-.32-.29.59.59,0,0,1-.14-.35.59.59,0,0,1,.12-.38,1.49,1.49,0,0,1,.47-.39,2.13,2.13,0,0,1,.63-.25,3,3,0,0,1,.67-.06,3.3,3.3,0,0,1,.69.11,3.77,3.77,0,0,1,.66.26l.42.24.41.24a2.24,2.24,0,0,1,.45.38.86.86,0,0,1,.19.4.59.59,0,0,1-.11.39,1.19,1.19,0,0,1-.42.36,2.3,2.3,0,0,1-.68.27,2.56,2.56,0,0,1-.66.07,2.35,2.35,0,0,1-.6-.08,2.91,2.91,0,0,1-.5-.18.09.09,0,0,1-.06-.08.08.08,0,0,1,.05-.07l.35-.2s.06,0,.11,0a.32.32,0,0,1,.14,0,1,1,0,0,0,.26.08,1.42,1.42,0,0,0,.3,0,1.39,1.39,0,0,0,.33-.05,1.88,1.88,0,0,0,.34-.14.58.58,0,0,0,.23-.2.3.3,0,0,0,0-.22.43.43,0,0,0-.11-.21,1,1,0,0,0-.24-.2l-.41-.25-.43-.23a1.35,1.35,0,0,0-.35-.14,1.53,1.53,0,0,0-.36-.07,2.22,2.22,0,0,0-.37,0,1.17,1.17,0,0,0-.35.14.66.66,0,0,0-.25.2.41.41,0,0,0-.09.19.33.33,0,0,0,0,.17A.87.87,0,0,0,384.49,412.65Z" style="fill:#455a64"></path><path d="M384.39,415.46a.24.24,0,0,1-.15,0,.45.45,0,0,1-.18,0l-4.21-1.2,0,0a.16.16,0,0,1-.06-.08.09.09,0,0,1,0-.07l.31-.18a.38.38,0,0,1,.17,0l.13,0,.74.21,1.36-.79-.37-.42a.19.19,0,0,1,0-.08s0-.06.08-.09l.31-.18a.16.16,0,0,1,.12,0,.28.28,0,0,1,.13,0l0,0,2.09,2.43a.28.28,0,0,1,.07.11.09.09,0,0,1-.06.08ZM382,414.33l1.89.55-.94-1.1Z" style="fill:#455a64"></path><path d="M381.07,417.38l-.12,0a.25.25,0,0,1-.13,0l-.36-.21a.19.19,0,0,1-.06-.07.06.06,0,0,1,.05-.07l.77-.45L378.49,415a.1.1,0,0,1-.06-.07.07.07,0,0,1,0-.07l.35-.21.13,0a.21.21,0,0,1,.12,0l2.73,1.58.78-.45a.22.22,0,0,1,.12,0,.25.25,0,0,1,.13,0l.36.21a.13.13,0,0,1,.06.07s0,.05-.05.07Z" style="fill:#455a64"></path><path d="M379.41,418.34a.4.4,0,0,1-.15,0,.93.93,0,0,1-.19,0l-4.2-1.21h0a.09.09,0,0,1-.06-.08s0,0,0-.07l.31-.18a.25.25,0,0,1,.16,0l.13,0,.74.21,1.37-.79-.37-.42a.2.2,0,0,1,0-.08s0-.06.08-.09l.31-.18a.24.24,0,0,1,.12,0,.4.4,0,0,1,.13,0l0,0,2.1,2.43a.17.17,0,0,1,.06.11s0,0-.06.08ZM377,417.21l1.9.55-.95-1.1Z" style="fill:#455a64"></path><path d="M372.92,418.77a.21.21,0,0,1-.12,0,.25.25,0,0,1-.13,0l-.36-.2a.16.16,0,0,1-.06-.08.09.09,0,0,1,0-.07l1.89-1.09a.35.35,0,0,1,.26,0l3.21,1.86a.09.09,0,0,1,.06.08s0,.05,0,.07l-.35.2a.22.22,0,0,1-.12,0,.28.28,0,0,1-.13,0L374.34,418Z" style="fill:#455a64"></path><path d="M374.1,419.9a2,2,0,0,1,.43.35.73.73,0,0,1,.2.39.57.57,0,0,1-.1.39,1.26,1.26,0,0,1-.45.38,2.24,2.24,0,0,1-.65.25,2.57,2.57,0,0,1-.68.06,3,3,0,0,1-.66-.11,2.6,2.6,0,0,1-.62-.25l-.22-.12-.24-.13-.23-.14-.21-.12a2.72,2.72,0,0,1-.43-.36.69.69,0,0,1-.19-.38.52.52,0,0,1,.1-.39,1.25,1.25,0,0,1,.45-.38,2.11,2.11,0,0,1,.65-.26,2.61,2.61,0,0,1,.68-.06,3,3,0,0,1,.66.11,3.82,3.82,0,0,1,.62.25l.22.12.23.13.24.14Zm-2,1.11a1.77,1.77,0,0,0,.76.21,1.4,1.4,0,0,0,.68-.17c.2-.12.3-.25.29-.4s-.13-.29-.36-.43l-.41-.25-.43-.24a1.62,1.62,0,0,0-.75-.2,1.21,1.21,0,0,0-.68.17c-.2.11-.3.24-.29.39s.12.29.35.43l.41.25Z" style="fill:#455a64"></path><path d="M371.11,421.63a1.59,1.59,0,0,1,.45.37.69.69,0,0,1,.18.39.61.61,0,0,1-.13.39,1.53,1.53,0,0,1-.46.38,2.37,2.37,0,0,1-.74.29,2.15,2.15,0,0,1-.65.07,1.7,1.7,0,0,1-.53-.07,2,2,0,0,1-.35-.12.09.09,0,0,1-.06-.08.09.09,0,0,1,0-.07l.35-.2a.2.2,0,0,1,.11,0h.09l.14,0h.25a2.23,2.23,0,0,0,.34,0,1.24,1.24,0,0,0,.38-.16c.22-.12.32-.26.32-.41a.58.58,0,0,0-.33-.43l-.4-.24-.42-.23a1.61,1.61,0,0,0-.8-.23,1.45,1.45,0,0,0-.71.19,1.08,1.08,0,0,0-.25.19.34.34,0,0,0-.1.21.29.29,0,0,0,.08.22,1,1,0,0,0,.31.24l0,0,.52-.31a.35.35,0,0,1,.26,0l.35.21s.06,0,.06.07a.08.08,0,0,1,0,.07l-1,.58-.13,0a.28.28,0,0,1-.13,0l-.54-.32a1.88,1.88,0,0,1-.47-.37.68.68,0,0,1-.19-.39.58.58,0,0,1,.13-.4,1.49,1.49,0,0,1,.47-.39,2.25,2.25,0,0,1,.67-.27,2.22,2.22,0,0,1,.68-.07,2.61,2.61,0,0,1,.67.11,3,3,0,0,1,.65.26l.21.12.24.13.23.14Z" style="fill:#455a64"></path><path d="M366.91,425.55a.28.28,0,0,1-.13,0l-.12,0-2.05-1.18a2.49,2.49,0,0,1-.48-.36.71.71,0,0,1-.19-.39.51.51,0,0,1,.11-.38,1.4,1.4,0,0,1,.44-.37,2.69,2.69,0,0,1,.64-.26,2.47,2.47,0,0,1,1.32.06,2.92,2.92,0,0,1,.63.27l2.05,1.18a.21.21,0,0,1,.06.08.08.08,0,0,1,0,.07l-.35.2a.25.25,0,0,1-.13,0,.34.34,0,0,1-.12,0l-2-1.16a2,2,0,0,0-.4-.18,1.24,1.24,0,0,0-.37-.06,1.27,1.27,0,0,0-.34,0,1.69,1.69,0,0,0-.31.13,1.06,1.06,0,0,0-.22.18.26.26,0,0,0-.07.2.29.29,0,0,0,.1.21,1,1,0,0,0,.3.23l2,1.17s.06,0,.06.07,0,.05,0,.07Z" style="fill:#455a64"></path><path d="M361.26,425.5a.21.21,0,0,1-.12,0l-.13,0-.35-.2a.09.09,0,0,1-.06-.08s0,0,0-.07l1.89-1.09a.28.28,0,0,1,.13,0l.12,0,3.22,1.86s.06,0,.06.07,0,.05,0,.07l-1.86,1.08-.12,0a.28.28,0,0,1-.13,0l-.35-.21s-.06,0-.06-.07a.06.06,0,0,1,0-.07l1.39-.81-.79-.46-1.3.75a.21.21,0,0,1-.12,0,.2.2,0,0,1-.13,0l-.35-.2a.09.09,0,0,1-.06-.08s0-.05,0-.07l1.3-.75-.83-.47Z" style="fill:#455a64"></path><path d="M360.64,410.08a.25.25,0,0,1-.16,0l-9.29-5.36c0-.09,0-.14.08-.19l17.46-10.09a.78.78,0,0,1,.3-.07.32.32,0,0,1,.16,0l9.29,5.36c0,.09,0,.14-.07.2L360.94,410A.64.64,0,0,1,360.64,410.08Z" style="fill:#fafafa"></path><path d="M369,394.39a.23.23,0,0,1,.13,0l9.3,5.36s0,0-.09.08l-17.46,10.08a.52.52,0,0,1-.27.07l-.13,0-9.3-5.36s0-.05.09-.08l17.47-10.09a.56.56,0,0,1,.26-.07m0-.13a.66.66,0,0,0-.33.09l-17.47,10.08c-.16.1-.2.24-.07.31l9.29,5.36a.38.38,0,0,0,.19,0,.76.76,0,0,0,.33-.08L378.44,400c.16-.09.2-.23.07-.3l-9.28-5.36a.39.39,0,0,0-.2-.05Z" style="fill:#e0e0e0"></path><path d="M361.65,400l.22,0a.92.92,0,0,1,.37,0l.9.52c.06,0,0,.1,0,.15L358,403.64a1.11,1.11,0,0,1-.41.11l-.23,0a.77.77,0,0,1-.37,0l-.89-.51c-.06,0-.05-.1,0-.15l5.08-2.93A1.06,1.06,0,0,1,361.65,400Z" style="fill:#4E44DB"></path><path d="M361.65,400l.22,0a.92.92,0,0,1,.37,0l.9.52c.06,0,0,.1,0,.15L358,403.64a1.11,1.11,0,0,1-.41.11l-.23,0a.77.77,0,0,1-.37,0l-.89-.51c-.06,0-.05-.1,0-.15l5.08-2.93A1.06,1.06,0,0,1,361.65,400Z" style="opacity:0.2"></path><path d="M357,403.73a.26.26,0,0,0,.24,0l5.08-2.93a.15.15,0,0,0,.08-.08l.74-.06s0,.05-.07.08L358,403.64a1.11,1.11,0,0,1-.41.11l-.23,0A.89.89,0,0,1,357,403.73Z" style="fill:#4E44DB"></path><path d="M357,403.73a.26.26,0,0,0,.24,0l5.08-2.93a.15.15,0,0,0,.08-.08l.74-.06s0,.05-.07.08L358,403.64a1.11,1.11,0,0,1-.41.11l-.23,0A.89.89,0,0,1,357,403.73Z" style="fill:#fff;opacity:0.6000000000000001"></path><path d="M362.39,400.62l-.89-.52a.31.31,0,0,0-.26,0l-5.08,2.93c-.09.05-.1.11,0,.15l.89.51a.27.27,0,0,0,.26,0l5.08-2.93C362.44,400.72,362.45,400.65,362.39,400.62Z" style="fill:#4E44DB"></path><path d="M355.43,403.6l.23,0a.75.75,0,0,1,.37.05l.9.51c.06,0,0,.11,0,.15l-1.29.75a1.11,1.11,0,0,1-.41.11l-.23,0a.77.77,0,0,1-.37-.05l-.89-.51c-.07,0-.05-.11,0-.15l1.3-.75A1.28,1.28,0,0,1,355.43,403.6Z" style="fill:#e0e0e0"></path><path d="M354.61,405.13a.26.26,0,0,0,.24,0l1.29-.74s.07-.06.07-.08l.75-.07s0,.06-.07.08l-1.29.75a1.11,1.11,0,0,1-.41.11l-.23,0A.89.89,0,0,1,354.61,405.13Z" style="fill:#ebebeb"></path><path d="M354.61,405.1l-.9-.52,0-.1,1.29-.74a.26.26,0,0,1,.15,0l1,.53,0,.1-1.3.74a.23.23,0,0,1-.14,0Z" style="fill:#fafafa"></path><path d="M355.19,403.73h.06l.9.52,0,0-1.29.75a.31.31,0,0,1-.13,0h-.07l-.9-.52a.11.11,0,0,1,0,0l1.29-.74a.2.2,0,0,1,.13,0m0-.06a.29.29,0,0,0-.16,0l-1.3.75c-.08,0-.1.11,0,.15l.89.51a.15.15,0,0,0,.1,0,.32.32,0,0,0,.16,0l1.29-.74c.08-.05.1-.12,0-.15l-.89-.52-.1,0Z" style="fill:#e0e0e0"></path><path d="M368.37,404.08l-6.92,4a.82.82,0,0,1-.74.06h0c-.18-.1-.13-.29.1-.43l6.92-4a.86.86,0,0,1,.74-.06h0C368.65,403.75,368.6,403.94,368.37,404.08Z" style="fill:#4E44DB"></path><path d="M368.37,404.08l-6.92,4a.82.82,0,0,1-.74.06h0c-.18-.1-.13-.29.1-.43l6.92-4a.86.86,0,0,1,.74-.06h0C368.65,403.75,368.6,403.94,368.37,404.08Z" style="opacity:0.25"></path><path d="M366.74,403.37l-.18.06-.15,0h-.13a.29.29,0,0,1-.1,0s0,0,0,0l0,0,.11-.07h.05s0,0,0,0h.12a.47.47,0,0,0,.17-.07.18.18,0,0,0,.07,0,.07.07,0,0,0,0-.05s0,0,0,0,0,0,0,0l-.07,0-.09,0-.12,0-.17.07-.21.06a.45.45,0,0,1-.16,0,.28.28,0,0,1-.13,0l-.12,0a.29.29,0,0,1-.08-.07.14.14,0,0,1,0-.09.16.16,0,0,1,.05-.1.36.36,0,0,1,.11-.1l-.09-.06,0,0,0,0,.13-.08h.08l.09.05.16-.05a.51.51,0,0,1,.17,0h.14a.28.28,0,0,1,.13,0l0,0,0,0-.1.06-.05,0h-.19l-.08,0-.11.05-.09,0,0,.06a.06.06,0,0,0,0,.05s0,0,0,0a.08.08,0,0,0,.07,0l.1,0,.14-.05.18-.07.17-.05.16,0h.13l.12.05a.29.29,0,0,1,.08.07.14.14,0,0,1,0,.09.14.14,0,0,1,0,.09.38.38,0,0,1-.09.09l.09.05,0,0,0,0-.13.07h-.08Z" style="fill:#455a64"></path><path d="M365.63,403.65h0s0,0,0,0l-.1.33v0l0,0-.13.07h-.08l-.87-.5v0s0,0,0,0l.12-.07h.08l.67.38.07-.21,0,0h.2Z" style="fill:#455a64"></path><path d="M364,404.55l-.06,0-.06,0-.07,0-.05,0a.4.4,0,0,1-.12-.1.15.15,0,0,1,0-.11.16.16,0,0,1,.05-.12.55.55,0,0,1,.16-.12.84.84,0,0,1,.22-.1.76.76,0,0,1,.21,0,.63.63,0,0,1,.19,0,.61.61,0,0,1,.17.07.67.67,0,0,1,.12.06l.11.07a.63.63,0,0,1,.12.1.18.18,0,0,1,.05.11.21.21,0,0,1-.05.12.8.8,0,0,1-.16.13l-.22.09-.21,0a.58.58,0,0,1-.19,0Zm.4-.5-.21-.06a.42.42,0,0,0-.21.06c-.07.05-.11.09-.1.12s0,.08.1.12a.52.52,0,0,0,.11.07l.11.06a.42.42,0,0,0,.21.06.48.48,0,0,0,.21-.06c.07,0,.1-.08.1-.12a.21.21,0,0,0-.1-.12l-.11-.07Z" style="fill:#455a64"></path><path d="M363.24,404.52a.05.05,0,0,1,0,0h0l-.14-.08s0,0,0,0a0,0,0,0,1,0,0l.14-.09h.08l.14.08s0,0,0,0l0,0Z" style="fill:#455a64"></path><path d="M363.66,405.1l0,0,0,0-.59.34H363l-.09-.06,0,0a0,0,0,0,1,0,0l.44-.26-.15-.11-.07.06-.07,0-.18.08a.65.65,0,0,1-.19,0h-.18a.49.49,0,0,1-.17-.06c-.06,0-.1-.07-.11-.11a.11.11,0,0,1,0-.11.49.49,0,0,1,.07-.11l.14-.1.21-.09a.72.72,0,0,1,.19,0H363l.13,0s0,0,0,0l0,0-.12.07h-.24l-.07,0-.08,0a.17.17,0,0,0-.1.11s0,.07.06.09a.2.2,0,0,0,.16,0,.32.32,0,0,0,.18-.06l.07,0,0,0,0,0,0,0,.14-.08h.08Z" style="fill:#455a64"></path><path d="M361.74,405.2h0l.05.27a.64.64,0,0,1,.19-.08l.19,0h.19a.43.43,0,0,1,.17.06.3.3,0,0,1,.1.09.25.25,0,0,1,0,.12.49.49,0,0,1-.07.11l-.14.11-.19.08-.2,0h-.19a.49.49,0,0,1-.17-.06l-.06-.05,0-.05s0,0,0-.05,0,0,0-.06l-.07-.38v0l0,0,.14-.08h.08Zm.59.35a.27.27,0,0,0-.18,0,.43.43,0,0,0-.18.06.19.19,0,0,0-.11.11s0,.07.06.1a.24.24,0,0,0,.17,0,.6.6,0,0,0,.19-.06.17.17,0,0,0,.1-.11S362.38,405.58,362.33,405.55Z" style="fill:#455a64"></path><path d="M361.56,401h-.06l-.69-.15h0s0,0,0,0l.07,0h.05l.12,0,.28-.16-.05-.07h0l0,0,.06,0h0l.27.4v0h0Zm-.38-.16.31.06-.12-.18Z" style="fill:#455a64"></path><path d="M360.94,401.16l-.05,0-.05,0h-.08l.16.09v0h0l-.06,0h-.05l-.5-.29h0v0l.07,0h.07a0,0,0,0,1,0,0l0,0,0,0,.09,0,.1,0h.1l.08,0,0,0h0l.05.05a.14.14,0,0,1,0,.06.08.08,0,0,1,0,.05Zm-.1-.15,0,0a.23.23,0,0,0-.11,0,.19.19,0,0,0-.1,0s0,0,0,.05a.09.09,0,0,0,0,.06l0,0h0a.16.16,0,0,0,.1,0l.09,0s.05,0,.05-.05S360.87,401,360.84,401Z" style="fill:#455a64"></path><path d="M360.4,401.47l-.06,0h-.12l.16.1h0l-.07,0h0l-.5-.29h0l.07,0h.06v0l0,0,0,0,.05,0a.25.25,0,0,1,.09,0h.2a.11.11,0,0,1,.08,0h0l0,0,.06,0a.13.13,0,0,1,0,.06.07.07,0,0,1,0,.06A.1.1,0,0,1,360.4,401.47Zm-.11-.15,0,0a.19.19,0,0,0-.1,0l-.1,0a.13.13,0,0,0-.05.06s0,0,0,.06h0l0,0a.14.14,0,0,0,.09,0l.1,0s.05,0,.05-.06S360.32,401.34,360.29,401.32Z" style="fill:#455a64"></path><path d="M359.43,401.73h-.05a.11.11,0,0,0-.07,0l-.05,0h-.05l0,0h0l.06,0a.37.37,0,0,1,.16-.05.25.25,0,0,1,.15,0l.17.1.06,0h0l.05,0h0v0l-.06,0,.12.07h0v0l-.07,0h0l-.12-.07-.12.06h0l0,0s0,0,0,0h0l.11-.07Z" style="fill:#455a64"></path><path d="M359.26,402.13l-.1,0-.11,0H359l-.09,0h-.08l0-.05a.13.13,0,0,1,0-.06.09.09,0,0,1,0-.06l.08-.06.1,0,.1,0h.1l.09,0h0l0,0h0l.05,0a.07.07,0,0,1,0,.05.21.21,0,0,1,0,.06A.22.22,0,0,1,359.26,402.13Zm-.28,0,0,0h.1l0,0,0,0a0,0,0,0,0,0,0v0l0,0H359l0,0,0,0,0,0s0,0,0,0l0,0H359Z" style="fill:#455a64"></path><path d="M358.3,402.22h.05l.49.28h0l-.25.16-.11,0h-.18a.08.08,0,0,1-.06,0l0,0s0,0,0,0v0h-.09a.17.17,0,0,1-.1,0l0,0s0,0,0-.05a.14.14,0,0,1,0-.06l.07-.05Zm0,.11-.16.09s-.05,0-.05.05,0,0,0,0l.07,0,.09,0,.16-.1Zm0,.3a.08.08,0,0,0,.07,0l.08,0,.15-.09-.11-.06-.16.09s-.05,0-.05,0S358.32,402.62,358.34,402.63Z" style="fill:#455a64"></path><path d="M358,402.72l0,0a.08.08,0,0,1,0,0,.09.09,0,0,1,0,0l-.06.05-.1,0-.09,0h-.09a.11.11,0,0,1-.08,0l-.22-.13h0l.07,0s0,0,0,0,0,0,0,0h0s0,0,0-.05a.22.22,0,0,1,.07-.06l.08,0h.14l.06,0a.06.06,0,0,1,0,.08.36.36,0,0,1-.07.09l-.13.09s.05,0,.07,0l.07,0,0,0s0,0,0,0h0l.08,0h0A0,0,0,0,1,358,402.72Zm-.36,0a.1.1,0,0,0-.05,0l0,0a0,0,0,0,0,0,0,0,0,0,0,0,0,0h0l.1-.08,0,0s0,0,0,0,0,0,0,0Z" style="fill:#455a64"></path><path d="M357,402.91l0,0,0,0v0l0,0,0,0V403l0,0,0,0,.1,0,.1,0h.1l.08,0,0,0h0l0,.05a.07.07,0,0,1,0,.06.14.14,0,0,1,0,.06s0,0-.06.05l-.06,0h-.1v0l-.06,0h-.05l-.36-.21a.12.12,0,0,1-.08-.11s.05-.08.12-.12l.09-.05.1,0h.15v0l-.06,0H357Zm.4.11,0,0-.11,0-.09,0a.13.13,0,0,0-.05.06s0,0,0,.05l0,0,0,0a.14.14,0,0,0,.09,0,.17.17,0,0,0,.1,0,.08.08,0,0,0,.05-.05S357.38,403,357.35,403Z" style="fill:#455a64"></path><path d="M364.06,401.43a.1.1,0,0,1,.05,0,.06.06,0,0,1,0,0,.14.14,0,0,1,0,.06l-.07.05-.09,0h-.17l-.07,0h0l0,0h0l0,0,0,0s0,0,0-.05h-.11l.06,0h.09a0,0,0,0,1,0,0l0,0,.09,0h.17l.07,0h0l0,0h0Zm-.28.16.09,0a.16.16,0,0,0,.09,0,.12.12,0,0,0,.05-.05.09.09,0,0,0,0-.06l-.05,0,0,0-.09,0-.1,0s0,0,0,.06,0,0,0,.05l0,0Z" style="fill:#455a64"></path><path d="M363.37,401.67h0l0,0,0,0h0l0,0h0l.05,0,.12,0a.12.12,0,0,1,.1,0l.12.07,0,0h0l0,0h0l0,0,.09,0s0,0,0,0h0l-.05,0h0l-.09-.05-.08.05h0l0,0h0l.08,0Z" style="fill:#455a64"></path><path d="M363,401.77l.37.07h0l0,0h0l-.25,0,.08.14h0l-.05,0h0l-.18-.31h0l.05,0h0Z" style="fill:#455a64"></path><path d="M361.71,402.66h0s0,0,0,0l0,0h0l-.19.11h0l0,0h0Z" style="fill:#455a64"></path><path d="M361.29,403.05h0l0,.13h0l0,0h0l-.34-.2h0l.05,0h0l.27.16,0-.09h.08Z" style="fill:#455a64"></path><path d="M360.38,403.43l-.1-.06h0l.05,0h0l.1.05.11-.06h0l0,0h0l-.11.06.09.06h0l-.05,0h0l-.09,0-.12.06a0,0,0,0,1,0,0h0l0,0h0Z" style="fill:#455a64"></path><path d="M363.42,403l.06.17h0v0l0,0h0l-.35-.2h0l.05,0h0l.21.12,0-.11h0v0h.07l.2,0-.21-.12h0l.05,0h0l.35.2h0l0,0h0Z" style="fill:#455a64"></path><path d="M365.15,402.25l-.08,0h-.18l0,0H365l.07,0,0,0,0,0s0,0,0,0h-.08l0,0-.07,0-.09,0-.06,0h-.11l0,0v0l0-.05.07,0,.08,0,.07,0H365l0,0h-.13l0,0,0,0s0,0,0,0,0,0,0,0,0,0,0,0h.12l.07,0,.07,0h.12l0,0,0,0s0,0,0,0,0,0,0,0A.15.15,0,0,1,365.15,402.25Z" style="fill:#455a64"></path><path d="M361.74,403.85h0l0,0h0l.28-.16a0,0,0,0,1,0,0h0l.35.2h0l-.05,0h0l-.29-.17Z" style="fill:#455a64"></path><path d="M360.2,404.67h.26l0-.13h0l.05,0h0l0,.19h.31l-.06,0h-.24l0,.12h0l-.05,0h0l0-.18h-.32Z" style="fill:#455a64"></path><path d="M359.84,405h0l0,0h0l.27-.16h0l.35.2h0a0,0,0,0,1,0,0l-.05,0h0l-.3-.17Z" style="fill:#455a64"></path><path d="M363.24,403.55l-.1,0-.59-.35a.09.09,0,0,1-.06-.08.14.14,0,0,1,.09-.12l.79-.46a.3.3,0,0,1,.26,0l.6.35a.1.1,0,0,1,0,.08.14.14,0,0,1-.08.12l-.8.46A.29.29,0,0,1,363.24,403.55Zm.18-.95-.8.46s0,0,0,0l.6.34a.18.18,0,0,0,.16,0l.8-.46s0,0,0,0l-.6-.34A.18.18,0,0,0,363.42,402.6Z" style="fill:#4E44DB"></path><path id="freepik--Heart--inject-38" d="M354.55,404.74a.46.46,0,0,0,.21,0h0a.51.51,0,0,0,.25-.06.15.15,0,0,0,0-.27.62.62,0,0,0,.48,0,.18.18,0,0,0,.11-.15h0a.14.14,0,0,0-.08-.11,1.65,1.65,0,0,0-1,0S354.22,404.55,354.55,404.74Z" style="fill:#4E44DB"></path><path id="freepik--heart--inject-38" d="M354.55,404.74a.46.46,0,0,0,.21,0h0a.51.51,0,0,0,.25-.06.15.15,0,0,0,0-.27.62.62,0,0,0,.48,0,.18.18,0,0,0,.11-.15h0a.14.14,0,0,0-.08-.11,1.65,1.65,0,0,0-1,0S354.22,404.55,354.55,404.74Z" style="opacity:0.25"></path><path d="M372.68,402.29l-.32-.19c-.46-.26-.4-.73.13-1h0a2,2,0,0,1,1.79-.08l.32.19C373.53,401.13,372.52,401.71,372.68,402.29Z" style="fill:#4E44DB"></path><path d="M372.68,402.29l-.32-.19c-.46-.26-.4-.73.13-1h0a2,2,0,0,1,1.79-.08l.32.19C373.53,401.13,372.52,401.71,372.68,402.29Z" style="opacity:0.45"></path><path d="M374.6,401.18a1.07,1.07,0,0,0,.2-.25,7,7,0,0,1-.85-.35,2.65,2.65,0,0,0-1-.44,2.4,2.4,0,0,1-1.28-.66,4.23,4.23,0,0,0-1.38-1.26c-.77-.46-3.56-1.72-3.56-1.72-.25-.14-2.37,1.09-2.12,1.23,0,0,2.12,1.59,3,2.1a8.11,8.11,0,0,0,2,.8,2.57,2.57,0,0,1,1.15.73c.18.29.41.37.78.55a2.16,2.16,0,0,1,.63.49,1.53,1.53,0,0,0,.49-.11s-.94-.62-.12-1.1A2.81,2.81,0,0,1,374.6,401.18Z" style="fill:#4E44DB"></path><path d="M374.6,401.18a1.07,1.07,0,0,0,.2-.25,7,7,0,0,1-.85-.35,2.65,2.65,0,0,0-1-.44,2.4,2.4,0,0,1-1.28-.66,4.23,4.23,0,0,0-1.38-1.26c-.77-.46-3.56-1.72-3.56-1.72-.25-.14-2.37,1.09-2.12,1.23,0,0,2.12,1.59,3,2.1a8.11,8.11,0,0,0,2,.8,2.57,2.57,0,0,1,1.15.73c.18.29.41.37.78.55a2.16,2.16,0,0,1,.63.49,1.53,1.53,0,0,0,.49-.11s-.94-.62-.12-1.1A2.81,2.81,0,0,1,374.6,401.18Z" style="opacity:0.25"></path><path d="M369.86,401.52s0-.18.43-.35l.49.19c.18.29.41.37.78.55a2.16,2.16,0,0,1,.63.49,1.76,1.76,0,0,1-.93-.22C371.05,402.06,369.86,401.52,369.86,401.52Z" style="fill:#37474f"></path><path d="M372.93,400.13l-.4-.28a1.11,1.11,0,0,1,.6-.3l1.12.73c.44.28.61.42.55.65a7,7,0,0,1-.85-.35,2.65,2.65,0,0,0-1-.44Z" style="fill:#37474f"></path><path d="M370.36,398.6a3.25,3.25,0,0,0-2.19-.53A6.78,6.78,0,0,1,370.36,398.6Z" style="opacity:0.15"></path><path d="M367,399.46c-.48-.32-1.11-1.09-1.05-1.41,0,0-.19.29.36.94Z" style="opacity:0.15"></path><path d="M352.35,428.07a.24.24,0,0,1-.16,0l-9.29-5.36c0-.09,0-.14.07-.19l17.47-10.08a.64.64,0,0,1,.3-.08.35.35,0,0,1,.16,0l9.29,5.36c0,.09,0,.15-.08.2L352.65,428A.64.64,0,0,1,352.35,428.07Z" style="fill:#fafafa"></path><path d="M360.74,412.38a.25.25,0,0,1,.13,0l9.3,5.36s0,0-.09.08l-17.46,10.08a.52.52,0,0,1-.27.07l-.13,0-9.3-5.36s0-.05.09-.08l17.46-10.09a.64.64,0,0,1,.27-.07m0-.13a.66.66,0,0,0-.33.09l-17.47,10.08c-.16.1-.2.24-.07.31l9.28,5.36a.4.4,0,0,0,.2,0,.76.76,0,0,0,.33-.08L370.15,418c.16-.09.2-.23.07-.3l-9.28-5.36a.42.42,0,0,0-.2-.05Z" style="fill:#e0e0e0"></path><path d="M353.35,418l.23,0a.92.92,0,0,1,.37,0l.9.52c.06,0,0,.1,0,.15l-5.08,2.93a1.11,1.11,0,0,1-.41.11l-.23,0a.94.94,0,0,1-.37,0l-.89-.52c-.06,0-.05-.1,0-.15l5.09-2.93A1.06,1.06,0,0,1,353.35,418Z" style="fill:#4E44DB"></path><path d="M353.35,418l.23,0a.92.92,0,0,1,.37,0l.9.52c.06,0,0,.1,0,.15l-5.08,2.93a1.11,1.11,0,0,1-.41.11l-.23,0a.94.94,0,0,1-.37,0l-.89-.52c-.06,0-.05-.1,0-.15l5.09-2.93A1.06,1.06,0,0,1,353.35,418Z" style="opacity:0.2"></path><path d="M348.74,421.72a.26.26,0,0,0,.24,0l5.08-2.93s.07-.05.07-.08l.75-.06s0,.05-.07.08l-5.08,2.93a1.11,1.11,0,0,1-.41.11l-.23,0A.89.89,0,0,1,348.74,421.72Z" style="fill:#4E44DB"></path><path d="M348.74,421.72a.26.26,0,0,0,.24,0l5.08-2.93s.07-.05.07-.08l.75-.06s0,.05-.07.08l-5.08,2.93a1.11,1.11,0,0,1-.41.11l-.23,0A.89.89,0,0,1,348.74,421.72Z" style="fill:#fff;opacity:0.6000000000000001"></path><path d="M354.1,418.61l-.89-.52a.31.31,0,0,0-.26,0l-5.09,2.93c-.08.05-.09.11,0,.15l.89.52a.31.31,0,0,0,.26,0l5.08-2.93C354.14,418.71,354.16,418.65,354.1,418.61Z" style="fill:#4E44DB"></path><path d="M347.14,421.59l.23,0a.77.77,0,0,1,.37.05l.9.51c.06,0,0,.11,0,.15l-1.29.75a1.17,1.17,0,0,1-.41.11l-.23,0a.77.77,0,0,1-.37-.05l-.9-.51c-.06,0,0-.11,0-.15l1.29-.75A1.43,1.43,0,0,1,347.14,421.59Z" style="fill:#e0e0e0"></path><path d="M346.32,423.12a.27.27,0,0,0,.24,0l1.29-.74s.07-.06.07-.08l.75-.07a.13.13,0,0,1-.07.08l-1.29.75a1.17,1.17,0,0,1-.41.11l-.23,0A.89.89,0,0,1,346.32,423.12Z" style="fill:#ebebeb"></path><path d="M346.31,423.09l-.89-.52,0-.09,1.29-.75a.26.26,0,0,1,.15,0l1,.53,0,.1-1.3.75a.37.37,0,0,1-.15,0Z" style="fill:#fafafa"></path><path d="M346.9,421.72H347l.9.52,0,0-1.29.75a.32.32,0,0,1-.14,0h-.06l-.9-.52a.12.12,0,0,1,0,0l1.3-.74a.18.18,0,0,1,.13,0m0-.06a.33.33,0,0,0-.17,0l-1.29.75c-.08,0-.1.11,0,.15l.9.51a.13.13,0,0,0,.09,0,.33.33,0,0,0,.17,0l1.29-.74c.08-.05.1-.12,0-.15l-.9-.52-.09,0Z" style="fill:#e0e0e0"></path><path d="M360.08,422.07l-6.92,4a.82.82,0,0,1-.74.06h0c-.18-.1-.13-.29.1-.43l6.92-4a.85.85,0,0,1,.74-.06h0C360.36,421.74,360.31,421.93,360.08,422.07Z" style="fill:#4E44DB"></path><path d="M360.08,422.07l-6.92,4a.82.82,0,0,1-.74.06h0c-.18-.1-.13-.29.1-.43l6.92-4a.85.85,0,0,1,.74-.06h0C360.36,421.74,360.31,421.93,360.08,422.07Z" style="opacity:0.25"></path><path d="M358.45,421.36l-.18.06-.15,0H358s-.08,0-.1,0,0,0,0,0l0,0,.11-.06a0,0,0,0,1,0,0h.18a.47.47,0,0,0,.17-.07.18.18,0,0,0,.07-.05.1.1,0,0,0,0,0,.06.06,0,0,0,0,0,.05.05,0,0,0,0,0l-.07,0-.09,0-.12,0-.18.07-.2.06-.16,0a.33.33,0,0,1-.14,0l-.11,0a.29.29,0,0,1-.08-.07.14.14,0,0,1,0-.09.21.21,0,0,1,0-.1.63.63,0,0,1,.12-.1l-.1-.06s0,0,0,0l0,0,.13-.07,0,0h0l.09.05.16-.05.16,0a.38.38,0,0,1,.15,0,.28.28,0,0,1,.13,0s0,0,0,0l0,0-.11.06,0,0H358l-.09,0-.1,0-.09.06-.06.05a.11.11,0,0,0,0,.05s0,0,0,0a.08.08,0,0,0,.07,0l.1,0,.13-.05.19-.07.17-.05.15,0h.14l.12,0a.29.29,0,0,1,.08.07.28.28,0,0,1,0,.09.18.18,0,0,1,0,.09.38.38,0,0,1-.09.09l.09.05s0,0,0,0v0l-.13.07h-.08Z" style="fill:#455a64"></path><path d="M357.34,421.64h0s0,0,0,0l-.1.33,0,0s0,0,0,0l-.12.07H357l-.87-.5s0,0,0,0a0,0,0,0,1,0,0l.13-.07h.08l.67.38.07-.21,0,0h.2Z" style="fill:#455a64"></path><path d="M355.69,422.54l-.06,0-.07,0-.06,0-.05,0a.4.4,0,0,1-.12-.1.16.16,0,0,1-.05-.11.24.24,0,0,1,.05-.12.62.62,0,0,1,.17-.12.84.84,0,0,1,.22-.1.76.76,0,0,1,.21,0,.52.52,0,0,1,.18,0,.67.67,0,0,1,.18.07l.12.06.11.07a.63.63,0,0,1,.12.1.18.18,0,0,1,.05.11.21.21,0,0,1-.05.12.56.56,0,0,1-.16.13.73.73,0,0,1-.23.09.69.69,0,0,1-.2,0,.58.58,0,0,1-.19,0Zm.39-.5a.76.76,0,0,0-.2-.06.42.42,0,0,0-.21.06c-.07,0-.11.09-.1.12s0,.08.09.12l.11.07.12.06a.42.42,0,0,0,.21.06.48.48,0,0,0,.21-.06c.07,0,.1-.08.1-.12a.21.21,0,0,0-.1-.12l-.11-.07Z" style="fill:#455a64"></path><path d="M355,422.51l0,0h0l-.13-.08s0,0,0,0l0,0,.14-.09H355l.13.08a0,0,0,0,1,0,0l0,0Z" style="fill:#455a64"></path><path d="M355.37,423.09a0,0,0,0,1,0,0l0,0-.59.34h-.08l-.1-.06s0,0,0,0l0,0,.44-.26-.16-.11-.06.06-.07,0-.18.08a.65.65,0,0,1-.19,0h-.19a.52.52,0,0,1-.16-.06.33.33,0,0,1-.12-.11.14.14,0,0,1,0-.11.28.28,0,0,1,.07-.11l.14-.1.21-.09a.72.72,0,0,1,.19,0h.16l.13,0s0,0,0,0l0,0-.12.07h-.24l-.08,0-.07,0a.17.17,0,0,0-.1.11s0,.07.06.1a.26.26,0,0,0,.16,0,.32.32,0,0,0,.18-.06l.07,0,0,0,0,0s0,0,0,0l.14-.08H355Z" style="fill:#455a64"></path><path d="M353.45,423.19h0l.05.27a.64.64,0,0,1,.19-.08l.19,0h.19a.49.49,0,0,1,.17.06.3.3,0,0,1,.1.09.17.17,0,0,1,0,.12.24.24,0,0,1-.06.11l-.14.11-.19.08-.2,0h-.19a.49.49,0,0,1-.17-.06l-.06,0a.1.1,0,0,1,0-.05s0,0,0-.05,0,0,0-.06l-.07-.38h0l0,0,.14-.08h.08Zm.58.35a.24.24,0,0,0-.17,0,.47.47,0,0,0-.19.06.17.17,0,0,0-.1.11s0,.07.05.1a.27.27,0,0,0,.18,0,.7.7,0,0,0,.19-.06.17.17,0,0,0,.1-.11S354.08,423.57,354,423.54Z" style="fill:#455a64"></path><path d="M353.27,418.94h-.06l-.69-.15h0a0,0,0,0,1,0,0v0l.07,0h.05l.12,0,.28-.16,0-.07h0l0,0,.06,0h.05l.26.4v0h0Zm-.38-.16.31.06-.12-.18Z" style="fill:#455a64"></path><path d="M352.65,419.15l0,0h-.13l.16.09v0h0l-.07,0h0l-.5-.29h0l.07,0h.06v0l0,0s0,0,0,0l.05,0,.09,0,.1,0h.1l.08,0,0,0h0s0,0,.06.05a.14.14,0,0,1,0,.06s0,0,0,0A.17.17,0,0,1,352.65,419.15Zm-.1-.15-.05,0a.18.18,0,0,0-.1,0,.17.17,0,0,0-.1,0,.1.1,0,0,0-.05.06.09.09,0,0,0,0,0l0,0h0a.16.16,0,0,0,.1,0l.09,0s.05,0,.05-.05S352.58,419,352.55,419Z" style="fill:#455a64"></path><path d="M352.11,419.46l-.06,0-.05,0h-.07l.16.1h0l-.06,0h0l-.5-.28v0h0l.07,0h.06v0l0,0,0,0,.1,0h.2a.13.13,0,0,1,.08,0h0l0,0a.12.12,0,0,1,.05.05s0,0,0,.05a.14.14,0,0,1,0,.06A.15.15,0,0,1,352.11,419.46Zm-.11-.15,0,0a.23.23,0,0,0-.11,0l-.09,0s-.05,0-.05.06,0,0,0,.06h0l0,0,.09,0,.1,0a.13.13,0,0,0,.05-.06A.07.07,0,0,0,352,419.31Z" style="fill:#455a64"></path><path d="M351.14,419.72h-.05l-.07,0,0,0h-.05l-.05,0h0l.07,0a.33.33,0,0,1,.16-.05.27.27,0,0,1,.15,0l.17.1.05,0h0l.05,0h0l0,0-.05,0,.12.07v0h0l-.07,0h0l-.13-.07-.11.06h0l-.06,0h0l.11-.07Z" style="fill:#455a64"></path><path d="M351,420.12l-.1,0-.11,0h-.1l-.08,0h-.08l0-.05a.13.13,0,0,1,0-.06.09.09,0,0,1,0-.06.28.28,0,0,1,.08-.06l.1,0,.1,0h.1l.08,0h0l0,0h0l.05.05s0,0,0,.05a.09.09,0,0,1,0,.06Zm-.28,0,.05,0h.1l0,0,0,0,0,0v0l0,0h-.12a0,0,0,0,0,0,0h0l0,0,0,0s0,0,0,0v0l0,0h0l0,0Z" style="fill:#455a64"></path><path d="M350,420.21h0l.5.28h0l-.26.16-.11,0H350l-.05,0,0,0a0,0,0,0,1,0,0v0h-.09a.17.17,0,0,1-.1,0,.08.08,0,0,1,0,0s0,0,0,0a.08.08,0,0,1,0-.05l.07-.06Zm0,.11-.16.09-.06,0s0,0,0,0l.07,0,.09,0,.16-.1Zm0,.3.07,0,.08,0,.15-.09-.11-.06-.16.09s-.05,0-.05,0S350,420.61,350.05,420.62Z" style="fill:#455a64"></path><path d="M349.74,420.71s0,0,0,0,0,0,0,0a.09.09,0,0,1,0,.05l-.07.05-.09,0-.09,0h-.09a.11.11,0,0,1-.08,0l-.23-.13h0l.06,0h.07a.17.17,0,0,1,0-.05.22.22,0,0,1,.07-.06l.08,0h.14l.06,0a.06.06,0,0,1,0,.08.28.28,0,0,1-.08.09l-.12.09a.09.09,0,0,0,.07,0l.07,0,0,0s0,0,0,0h0l.08-.05h0Zm-.36,0a.1.1,0,0,0-.05,0l0,0v0l0,0h0l.11-.08,0,0s0,0,0,0h0Z" style="fill:#455a64"></path><path d="M348.66,420.9l0,0,0,0s0,0,0,0l0,0,0,0v0l0,0,0,0,.1,0H349l.09,0,0,0,0,0,.05,0a.1.1,0,0,1,0,.12l-.07.05-.05,0H349v0l-.07,0h0l-.36-.21c-.06,0-.09-.07-.08-.11s.05-.08.12-.12l.09-.05.1,0h.15v0l-.06,0h-.11Zm.4.11,0,0-.11,0-.09,0s-.05,0-.05.06,0,0,0,.05l0,0,0,0a.17.17,0,0,0,.1,0,.17.17,0,0,0,.1,0,.08.08,0,0,0,.05-.05A.07.07,0,0,0,349.06,421Z" style="fill:#455a64"></path><path d="M355.77,419.42a.1.1,0,0,1,.05,0,.07.07,0,0,1,0,.05.09.09,0,0,1,0,.05l-.06.05-.1,0h-.16l-.08,0h0l0,0h0l0,0-.05,0a.09.09,0,0,1,0-.05h-.11l.06,0h.08l0,0,0,0,.1,0h.16l.07,0h0l0,0h0Zm-.28.16.09,0,.09,0,.05-.05a.05.05,0,0,0,0,0l0,0-.05,0-.09,0-.09,0a.13.13,0,0,0-.05.06s0,0,0,0l0,0Z" style="fill:#455a64"></path><path d="M355.08,419.66h0l-.05,0,0,0h0l0,0h0l.05,0,.11,0a.14.14,0,0,1,.11,0l.12.07,0,0a0,0,0,0,1,0,0h0l0,0h0l0,0,.09,0h0a0,0,0,0,0,0,0l-.05,0h0l-.09-.05-.08.05h0l0,0h0l.08,0Z" style="fill:#455a64"></path><path d="M354.73,419.76l.37.07h0s0,0,0,0l0,0h0l-.25-.05.09.14h0l-.05,0h0l-.18-.31h0l0,0h0Z" style="fill:#455a64"></path><path d="M353.42,420.65h0l0,0h0l-.19.11h0l0,0h0Z" style="fill:#455a64"></path><path d="M353,421h0l0,.13h0l0,0h0l-.35-.2h0l0,0h0l.27.16,0-.09H353Z" style="fill:#455a64"></path><path d="M352.09,421.42l-.1-.06h0l.05,0h0l.1.05.11-.06h0l0,0h0l-.12.06.1.06h0l-.05,0h0l-.1-.06-.11.06h0l0,0h0Z" style="fill:#455a64"></path><path d="M355.13,421l.06.17h0v0l-.05,0h0l-.35-.2h0l.06,0h0l.21.12,0-.11v0h.08l.2,0-.21-.12h0l.05,0h0l.35.2h0l0,0h0Z" style="fill:#455a64"></path><path d="M356.86,420.24l-.08,0h-.19l.05,0h.09l.06,0,0,0,0,0v0h-.07l0,0-.07,0-.08,0-.07,0h-.05l-.05,0a0,0,0,0,1,0,0s0,0,0,0a.09.09,0,0,1,0-.05l.07,0,.07,0,.08,0h.13l0,0h-.13l0,0,0,0s0,0,0,0v0l0,0h.06l.06,0,.07,0,.07,0h.12l0,0,0,0v0l0,.05Z" style="fill:#455a64"></path><path d="M353.45,421.84h0l0,0h0l.27-.16h0l.35.2h0l0,0h0l-.3-.17Z" style="fill:#455a64"></path><path d="M351.91,422.66h.26l0-.13h0l0,0h0l0,.19h.3l-.05,0h-.25l0,.12h0l-.05,0h0a0,0,0,0,1,0,0h0l0-.18h-.32Z" style="fill:#455a64"></path><path d="M351.55,422.94h0l0,0h0s0,0,0,0l.27-.16h0l.35.2h0l-.05,0h0l-.3-.17Z" style="fill:#455a64"></path><path d="M355,421.54l-.1,0-.6-.35a.1.1,0,0,1-.05-.08.14.14,0,0,1,.08-.12l.8-.46a.3.3,0,0,1,.26,0l.59.35a.09.09,0,0,1,.06.08.14.14,0,0,1-.08.12l-.8.46A.29.29,0,0,1,355,421.54Zm.18-1-.8.46s0,0,0,0l.6.34a.18.18,0,0,0,.16,0l.8-.46,0,0-.6-.34a.18.18,0,0,0-.16,0Z" style="fill:#4E44DB"></path><path id="freepik--heart--inject-38" d="M346.26,422.73a.42.42,0,0,0,.2,0h0a.51.51,0,0,0,.25-.06.15.15,0,0,0,0-.27.59.59,0,0,0,.47,0,.19.19,0,0,0,.12-.15h0a.14.14,0,0,0-.08-.11,1.65,1.65,0,0,0-1,0S345.93,422.54,346.26,422.73Z" style="fill:#4E44DB"></path><path id="freepik--heart--inject-38" d="M346.26,422.73a.42.42,0,0,0,.2,0h0a.51.51,0,0,0,.25-.06.15.15,0,0,0,0-.27.59.59,0,0,0,.47,0,.19.19,0,0,0,.12-.15h0a.14.14,0,0,0-.08-.11,1.65,1.65,0,0,0-1,0S345.93,422.54,346.26,422.73Z" style="opacity:0.25"></path><path d="M361.78,418.64a16.32,16.32,0,0,1-4.19-.84c-1-.37-2.4-1-2.4-1a3.31,3.31,0,0,1,.23-.43.47.47,0,0,1,.4-.17.56.56,0,0,1,.38-.3.24.24,0,0,1-.07-.27c.06-.15.37-.23.64-.42a6.69,6.69,0,0,1,.66-.48.4.4,0,0,1,.32,0s0-.08.23-.22a.64.64,0,0,1,.4-.1,3,3,0,0,1,.59-.28.37.37,0,0,1,.32.08c.27-.22.44-.13.44-.13l.37-.25a.88.88,0,0,1,.49-.11s1,.79,1.63,1.39a4.77,4.77,0,0,1,1.46,2.42l-1.9,1.11" style="fill:#4E44DB"></path><path d="M361.78,418.64a16.32,16.32,0,0,1-4.19-.84c-1-.37-2.4-1-2.4-1a3.31,3.31,0,0,1,.23-.43.47.47,0,0,1,.4-.17.56.56,0,0,1,.38-.3.24.24,0,0,1-.07-.27c.06-.15.37-.23.64-.42a6.69,6.69,0,0,1,.66-.48.4.4,0,0,1,.32,0s0-.08.23-.22a.64.64,0,0,1,.4-.1,3,3,0,0,1,.59-.28.37.37,0,0,1,.32.08c.27-.22.44-.13.44-.13l.37-.25a.88.88,0,0,1,.49-.11s1,.79,1.63,1.39a4.77,4.77,0,0,1,1.46,2.42l-1.9,1.11" style="opacity:0.25"></path><path d="M356.2,415.93a.56.56,0,0,0-.38.3.47.47,0,0,0-.4.17,3.31,3.31,0,0,0-.23.43l.47.2a4.53,4.53,0,0,1,.3-.46.24.24,0,0,1,.3-.08.56.56,0,0,1,.44-.31c0-.14.18-.3.5-.45s.61-.51.81-.59a.76.76,0,0,1,.41,0,.64.64,0,0,1,.26-.23.62.62,0,0,1,.38-.06,1,1,0,0,1,.39-.26.46.46,0,0,1,.34,0,.57.57,0,0,1,.43-.11,2,2,0,0,1,.81-.35l-.44-.36a.88.88,0,0,0-.49.11l-.37.25s-.17-.09-.44.13a.37.37,0,0,0-.32-.08,3,3,0,0,0-.59.28.64.64,0,0,0-.4.1c-.22.14-.23.22-.23.22a.4.4,0,0,0-.32,0,6.69,6.69,0,0,0-.66.48c-.27.19-.58.27-.64.42A.24.24,0,0,0,356.2,415.93Z" style="opacity:0.15"></path><path d="M362.63,416.68s-.31-.77-2.75-2.7l-.15.1A15.49,15.49,0,0,1,362.63,416.68Z" style="opacity:0.1"></path><path d="M359.43,414.12l-.14.09a17.22,17.22,0,0,1,2,1.52A10.15,10.15,0,0,0,359.43,414.12Z" style="opacity:0.1"></path><path d="M362,417a19.42,19.42,0,0,0-3.44-2.63l-.16.09A26.5,26.5,0,0,1,362,417Z" style="opacity:0.1"></path><path d="M359.51,415.74c.45.26,1.06.69,1.06.69a15.07,15.07,0,0,0-1.53-1.12,10.85,10.85,0,0,0-1.22-.67.2.2,0,0,0-.07.09C358.07,414.88,359.06,415.48,359.51,415.74Z" style="opacity:0.1"></path><path d="M361,417.52a10.53,10.53,0,0,1-1.95-.84c-.48-.28-1.9-1.1-2.14-1.18l1.45.9A8.86,8.86,0,0,0,361,417.52Z" style="opacity:0.1"></path><path d="M356.05,416a16.06,16.06,0,0,0,3.89,1.52,22.15,22.15,0,0,1-3.74-1.58A.43.43,0,0,0,356.05,416Z" style="opacity:0.1"></path><path d="M355.62,416.26a17.71,17.71,0,0,0,1.8.91,9.92,9.92,0,0,0,1.41.42s-.76-.23-1.37-.48a13.63,13.63,0,0,1-1.64-.88A.84.84,0,0,0,355.62,416.26Z" style="opacity:0.1"></path><path d="M362.19,418.34a15.09,15.09,0,0,1-2.63-.69,11.88,11.88,0,0,0,2.54.75Z" style="opacity:0.15"></path><path d="M362.63,418.07a9.56,9.56,0,0,0-1.51-1.09,6.74,6.74,0,0,1,1.61,1" style="opacity:0.15"></path><path d="M363.24,417.74a2.9,2.9,0,0,0-.48-1.13,2.72,2.72,0,0,1,.58,1.08Z" style="opacity:0.15"></path><path d="M366.5,419.28a3.89,3.89,0,0,0-1.89,1.05L364,420c-.44-.26-.39-.71.13-1h0a2,2,0,0,1,1.73-.07Z" style="fill:#4E44DB"></path><path d="M366.5,419.28a3.89,3.89,0,0,0-1.89,1.05L364,420c-.44-.26-.39-.71.13-1h0a2,2,0,0,1,1.73-.07Z" style="opacity:0.45"></path><path d="M364.39,419.15a2,2,0,0,1,.22,1.18,5.68,5.68,0,0,1-1,.18,4.41,4.41,0,0,1-1.51-.26l.31-.73c-.12-.11-.39-.39-.34-.68l.6-.66Z" style="fill:#4E44DB"></path><path d="M364.39,419.15a2,2,0,0,1,.22,1.18,5.68,5.68,0,0,1-1,.18,4.41,4.41,0,0,1-1.51-.26l.31-.73c-.12-.11-.39-.39-.34-.68l.6-.66Z" style="opacity:0.25"></path><path d="M361.3,420.06a2.46,2.46,0,0,1,.5-.94.32.32,0,0,1,.32-.09h0a1.17,1.17,0,0,0,.33.49,5.28,5.28,0,0,1-.08.58.69.69,0,0,1-.12.19l-.1.06c-.12,0-.25,0-.41-.06S361.29,420.23,361.3,420.06Z" style="fill:#455a64"></path><path d="M364.12,420.45c.25-.05.49-.12.49-.12a2,2,0,0,0-.22-1.18l-.78-.45A2.55,2.55,0,0,1,364.12,420.45Z" style="opacity:0.18"></path><path d="M362.42,418.35a5.47,5.47,0,0,0,2.17.82c.86.08,1.91.11,1.91.11a2.47,2.47,0,0,0,.42-.6c.1-.26-.13-.59-.42-1a12.71,12.71,0,0,1-1.43.26,2.84,2.84,0,0,0-.54-.19,3.65,3.65,0,0,0-.5-.06Z" style="fill:#4E44DB"></path><path d="M362.42,418.35a5.47,5.47,0,0,0,2.17.82c.86.08,1.91.11,1.91.11a2.47,2.47,0,0,0,.42-.6c.1-.26-.13-.59-.42-1a12.71,12.71,0,0,1-1.43.26,2.84,2.84,0,0,0-.54-.19,3.65,3.65,0,0,0-.5-.06Z" style="opacity:0.25"></path><path d="M364.45,417.77s-.06,0,0-.14.25-.07.55-.16a7.39,7.39,0,0,1,1.12-.24c.14,0,.24.14.31.22s.26.1.21.22a.25.25,0,0,1-.13.11,1.55,1.55,0,0,1-.54.12l-.67.06a1.11,1.11,0,0,1-.26,0,3.13,3.13,0,0,0-.54-.18Z" style="fill:#455a64"></path><path d="M364.64,417.61c-.07,0-.12.06,0,.05s.14-.05.46-.1a10.19,10.19,0,0,0,1-.16c.15-.07.11-.14-.12-.12s-.58.12-.77.16S364.71,417.6,364.64,417.61Z" style="opacity:0.2"></path><path d="M361.89,419.16s.1-.08.08,0-.08.09-.14.27-.07.52-.18.61-.24.07-.22-.06a1.88,1.88,0,0,1,.22-.45C361.72,419.4,361.87,419.2,361.89,419.16Z" style="opacity:0.2"></path><path d="M366.5,419.28a3,3,0,0,0,.24-.3,21.13,21.13,0,0,1-2.28-.19,6.83,6.83,0,0,1-1.72-.63l-.32.19a5.47,5.47,0,0,0,2.17.82C365.45,419.25,366.5,419.28,366.5,419.28Z" style="opacity:0.15"></path><path d="M365.07,418c.17.07.51.27.66.32s.44,0,.24-.06a2.47,2.47,0,0,1-.57-.15A1.83,1.83,0,0,0,365.07,418Z" style="opacity:0.15"></path><path d="M362.45,419.52c.11.09.46.29.54.38s-.05.25-.1.14a1,1,0,0,0-.26-.34A.61.61,0,0,1,362.45,419.52Z" style="opacity:0.15"></path><path d="M364,417.73l-.35-.2a12.25,12.25,0,0,0-1.09.56,4.38,4.38,0,0,0-.81.55l.33.2A8.06,8.06,0,0,1,364,417.73Z" style="fill:#37474f"></path><path d="M363.91,418.93s0-.07,0-.09a.16.16,0,0,1,.15,0s0,.06,0,.09A.16.16,0,0,1,363.91,418.93Z" style="fill:#37474f"></path><path d="M363.4,418.75a0,0,0,0,1,0-.09.16.16,0,0,1,.15,0s0,.06,0,.09A.16.16,0,0,1,363.4,418.75Z" style="fill:#37474f"></path><path d="M363,418.55s0-.06,0-.09a.2.2,0,0,1,.15,0s0,.06,0,.09A.19.19,0,0,1,363,418.55Z" style="fill:#37474f"></path><path d="M340.92,421.47a.39.39,0,0,1-.17,0l-9.28-5.36c-.05-.09,0-.14.07-.19L349,405.79a.58.58,0,0,1,.3-.07.38.38,0,0,1,.16,0l9.29,5.36c0,.09,0,.14-.08.2l-17.47,10.08A.57.57,0,0,1,340.92,421.47Z" style="fill:#fafafa"></path><path d="M349.31,405.78a.25.25,0,0,1,.13,0l9.29,5.36s0,0-.08.08l-17.47,10.08a.47.47,0,0,1-.27.07l-.13,0L331.49,416s0,0,.08-.09L349,405.85a.57.57,0,0,1,.27-.07m0-.13a.69.69,0,0,0-.34.09l-17.46,10.08c-.17.1-.2.23-.08.31l9.29,5.36a.38.38,0,0,0,.19,0,.69.69,0,0,0,.34-.09l17.46-10.08c.17-.1.2-.23.08-.3l-9.29-5.37a.53.53,0,0,0-.19,0Z" style="fill:#e0e0e0"></path><path d="M341.92,411.41l.23,0a.94.94,0,0,1,.37,0l.89.52c.06,0,0,.1,0,.15L338.29,415a1.06,1.06,0,0,1-.4.11l-.23,0a.75.75,0,0,1-.37-.05l-.9-.51c-.06,0,0-.1,0-.15l5.08-2.94A1.37,1.37,0,0,1,341.92,411.41Z" style="fill:#4E44DB"></path><path d="M341.92,411.41l.23,0a.94.94,0,0,1,.37,0l.89.52c.06,0,0,.1,0,.15L338.29,415a1.06,1.06,0,0,1-.4.11l-.23,0a.75.75,0,0,1-.37-.05l-.9-.51c-.06,0,0-.1,0-.15l5.08-2.94A1.37,1.37,0,0,1,341.92,411.41Z" style="opacity:0.2"></path><path d="M337.3,415.12a.28.28,0,0,0,.25,0l5.08-2.93a.17.17,0,0,0,.07-.08l.75-.06a.23.23,0,0,1-.07.08L338.29,415a1.06,1.06,0,0,1-.4.11l-.23,0A.94.94,0,0,1,337.3,415.12Z" style="fill:#4E44DB"></path><path d="M337.3,415.12a.28.28,0,0,0,.25,0l5.08-2.93a.17.17,0,0,0,.07-.08l.75-.06a.23.23,0,0,1-.07.08L338.29,415a1.06,1.06,0,0,1-.4.11l-.23,0A.94.94,0,0,1,337.3,415.12Z" style="fill:#fff;opacity:0.6000000000000001"></path><path d="M342.66,412l-.89-.52a.34.34,0,0,0-.26,0l-5.08,2.94c-.08.05-.1.11,0,.15l.9.51a.27.27,0,0,0,.26,0l5.08-2.93C342.71,412.11,342.73,412,342.66,412Z" style="fill:#4E44DB"></path><path d="M335.71,415l.23,0a.77.77,0,0,1,.37,0l.89.51c.06,0,.05.11,0,.15l-1.29.75a1.27,1.27,0,0,1-.41.11l-.22,0a.81.81,0,0,1-.38-.05L334,416c-.06,0,0-.11,0-.15l1.29-.75A1.11,1.11,0,0,1,335.71,415Z" style="fill:#e0e0e0"></path><path d="M334.88,416.52a.29.29,0,0,0,.24,0l1.3-.75a.13.13,0,0,0,.07-.08l.75-.06a.13.13,0,0,1-.08.08l-1.29.75a1.27,1.27,0,0,1-.41.11l-.22,0A.91.91,0,0,1,334.88,416.52Z" style="fill:#ebebeb"></path><path d="M334.88,416.48,334,416l0-.1,1.3-.74a.23.23,0,0,1,.14,0l1,.53,0,.1-1.29.74a.26.26,0,0,1-.15,0Z" style="fill:#fafafa"></path><path d="M335.46,415.12h.07l.9.52a.11.11,0,0,1-.05,0l-1.29.75a.28.28,0,0,1-.13,0h-.06l-.9-.52,0,0,1.29-.75a.31.31,0,0,1,.13,0m0-.06a.32.32,0,0,0-.16,0l-1.29.75c-.08,0-.1.11,0,.15l.89.51a.16.16,0,0,0,.1,0,.29.29,0,0,0,.16,0l1.3-.75c.08,0,.1-.11,0-.15l-.89-.51a.15.15,0,0,0-.1,0Z" style="fill:#e0e0e0"></path><path d="M348.64,415.47l-6.92,4a.83.83,0,0,1-.73.06h0c-.17-.1-.12-.29.11-.43l6.92-4a.8.8,0,0,1,.73-.06h0C348.92,415.14,348.88,415.33,348.64,415.47Z" style="fill:#4E44DB"></path><path d="M348.64,415.47l-6.92,4a.83.83,0,0,1-.73.06h0c-.17-.1-.12-.29.11-.43l6.92-4a.8.8,0,0,1,.73-.06h0C348.92,415.14,348.88,415.33,348.64,415.47Z" style="opacity:0.25"></path><path d="M347,414.76l-.17.05-.16,0h-.13l-.09,0a0,0,0,0,1,0,0l0,0,.11-.07h.23a.56.56,0,0,0,.17-.07.15.15,0,0,0,.06-.05l.05-.05a.06.06,0,0,0,0,0l0,0-.07,0-.09,0-.13,0-.17.06a1.21,1.21,0,0,1-.2.07l-.16,0h-.14a.31.31,0,0,1-.12-.05.16.16,0,0,1-.07-.07.11.11,0,0,1,0-.08.24.24,0,0,1,.05-.1.36.36,0,0,1,.11-.1l-.09-.06s0,0,0,0,0,0,0,0l.12-.08h.08l.09.05.17-.05a.45.45,0,0,1,.16,0h.15a.28.28,0,0,1,.13,0v0l0,0-.11.06-.05,0h-.18l-.09,0-.11.05-.08.05a.17.17,0,0,0-.06.06l0,0s0,0,0,0l.07,0,.1,0,.14-.05.18-.07.18-.06.15,0h.13l.13.05a.16.16,0,0,1,.07.07.12.12,0,0,1,0,.08l0,.1-.1.09.1.05v0s0,0,0,0l-.13.07h-.07Z" style="fill:#455a64"></path><path d="M345.91,415h0v0l-.11.33v0l0,0-.12.07h-.08l-.88-.5v0l0,0,.13-.07h.07l.67.39.08-.21,0,0h.2Z" style="fill:#455a64"></path><path d="M344.25,415.94l-.05,0-.07,0-.06,0-.06,0a.63.63,0,0,1-.12-.1.15.15,0,0,1,0-.11.21.21,0,0,1,0-.12.67.67,0,0,1,.17-.13,1,1,0,0,1,.22-.09l.2,0a.58.58,0,0,1,.19,0,.85.85,0,0,1,.17.06l.12.07.12.07a.4.4,0,0,1,.12.1.17.17,0,0,1,0,.11.19.19,0,0,1,0,.12.92.92,0,0,1-.17.13l-.22.09-.21,0-.18,0Zm.4-.5-.21-.06a.41.41,0,0,0-.2.06c-.08,0-.11.08-.11.12a.21.21,0,0,0,.1.12l.11.07.12.06a.39.39,0,0,0,.2.06.42.42,0,0,0,.21-.06c.07,0,.11-.08.1-.12s0-.08-.09-.12l-.11-.07Z" style="fill:#455a64"></path><path d="M343.52,415.91l0,0h0l-.13-.08,0,0,0,0,.15-.09h.08l.13.07a0,0,0,0,1,0,0l0,0Z" style="fill:#455a64"></path><path d="M343.94,416.49s0,0,0,0l0,0-.59.34h-.07l-.1-.05v0a0,0,0,0,1,0,0l.44-.25-.15-.11-.07.06-.06,0-.19.08a.58.58,0,0,1-.19,0,.37.37,0,0,1-.18,0l-.17-.05a.38.38,0,0,1-.11-.11.14.14,0,0,1,0-.11.38.38,0,0,1,.08-.11.56.56,0,0,1,.14-.1l.21-.09a.39.39,0,0,1,.18,0h.16a.4.4,0,0,1,.13,0l0,0,0,0-.13.07H343l-.07,0-.07,0a.22.22,0,0,0-.11.1.1.1,0,0,0,.07.1.19.19,0,0,0,.15,0,.33.33,0,0,0,.19-.06l.07-.05,0,0v0l0,0,.15-.08h.08Z" style="fill:#455a64"></path><path d="M342,416.59h0l.05.27a.91.91,0,0,1,.38-.12.61.61,0,0,1,.19,0,.44.44,0,0,1,.16.06.22.22,0,0,1,.1.09.15.15,0,0,1,0,.11.25.25,0,0,1-.07.12.57.57,0,0,1-.14.11l-.19.08-.2,0h-.19a.44.44,0,0,1-.16-.06l-.07-.05,0-.05a.17.17,0,0,1,0-.05s0,0,0-.06l-.06-.38v0l0,0,.14-.08H342Zm.58.35a.25.25,0,0,0-.17,0,.33.33,0,0,0-.19.06.23.23,0,0,0-.11.11s0,.07.06.1a.25.25,0,0,0,.17,0,.6.6,0,0,0,.19-.06c.06,0,.1-.07.11-.11S342.65,417,342.6,416.94Z" style="fill:#455a64"></path><path d="M341.84,412.34h-.06l-.7-.15h0v0l.06,0,0,0h0l.13,0,.27-.16,0-.07h0l0,0,.07,0h.05l.26.4v0h0Zm-.39-.17.32.07-.12-.18Z" style="fill:#455a64"></path><path d="M341.21,412.55l0,0-.05,0H341l.16.09h0s0,0,0,0l-.07,0h-.05l-.5-.29h0v0l.07,0s0,0,0,0h0v0l0,0,0,0,.1,0h.2l.08,0,0,0h0l0,.05a.07.07,0,0,1,0,.06s0,0,0,.05A.22.22,0,0,1,341.21,412.55Zm-.1-.16,0,0a.22.22,0,0,0-.11,0l-.09,0s-.05,0-.05.05,0,0,0,.06l0,0h0a.13.13,0,0,0,.09,0,.17.17,0,0,0,.1,0,.12.12,0,0,0,0-.05S341.14,412.42,341.11,412.39Z" style="fill:#455a64"></path><path d="M340.67,412.86l-.05,0h-.13l.17.1h0l-.07,0h0l-.5-.29h0l.07,0h.06v0a0,0,0,0,1,0,0l0,0,0,0,.09,0h.2l.08,0,0,0,0,0,.05,0a.1.1,0,0,1,0,.12Zm-.1-.15,0,0-.11,0-.09,0-.06.06a.05.05,0,0,0,0,.05l0,0,0,0a.16.16,0,0,0,.1,0l.09,0s.05,0,.05-.05S340.6,412.73,340.57,412.71Z" style="fill:#455a64"></path><path d="M339.71,413.12h-.06a.11.11,0,0,0-.07,0l-.05,0h0l-.05,0h0l.06,0a.37.37,0,0,1,.17-.05.21.21,0,0,1,.15,0l.16.1.06,0h0l.05,0h0s0,0,0,0l-.06,0,.13.07h0s0,0,0,0l-.06,0h-.05l-.12-.08-.11.07h-.05l-.05,0h0l.12-.07Z" style="fill:#455a64"></path><path d="M339.53,413.52l-.1,0-.1,0h-.1l-.09,0h-.07l-.05-.05a.13.13,0,0,1,0-.06l0-.06a.22.22,0,0,1,.07-.06l.1,0,.11,0h.09l.09,0h.06l0,0s0,0,0,0a.13.13,0,0,1,0,.06s0,0,0,.06Zm-.28,0,.06,0h.09l0,0,0,0,0,0a0,0,0,0,0,0,0l0,0h-.07l0,0h-.05l-.05,0,0,0,0,0,0,0v0l0,0h.06Z" style="fill:#455a64"></path><path d="M338.58,413.61h0l.49.29h0s0,0,0,0l-.26.15a.27.27,0,0,1-.11.05h-.18l-.06,0,0,0,0,0v0h-.09l-.09,0a.1.1,0,0,1,0,0s0,0,0-.05,0,0,0-.06,0,0,.07-.05Zm0,.11-.17.09s-.05,0-.05.05a.05.05,0,0,0,0,0l.07,0,.09,0,.17-.1Zm0,.3a.07.07,0,0,0,.06,0,.13.13,0,0,0,.08,0l.16-.09-.12-.06-.15.09a.1.1,0,0,0-.06,0S338.6,414,338.62,414Z" style="fill:#455a64"></path><path d="M338.3,414.11l0,0s0,0,0,0l0,.05-.07,0-.09,0-.09,0H338l-.09,0-.22-.13h0s0,0,0,0l.07,0h0l0,0a.09.09,0,0,1,0-.05.28.28,0,0,1,.08-.06l.07,0h.15l.06,0a.09.09,0,0,1,0,.07.22.22,0,0,1-.08.09l-.12.1a.08.08,0,0,0,.07,0l.07,0,0,0v0h0l.09-.05h0Zm-.36,0,0,0,0,0a0,0,0,0,0,0,0l0,0h0l.1-.08,0,0a0,0,0,0,0,0,0H338Z" style="fill:#455a64"></path><path d="M337.23,414.3l0,0,0,0v0l0,0,0,0v0a0,0,0,0,1,0,0l0,0,.05,0,.09,0,.1,0h.1l.08,0,0,0h0l.05.05a.14.14,0,0,1,0,.06.09.09,0,0,1,0,.06l-.06.05-.05,0h-.1v0l-.07,0h-.05l-.35-.21c-.06,0-.09-.07-.08-.11a.24.24,0,0,1,.12-.13l.09,0,.09,0h.16l0,0,0,0h-.11A.11.11,0,0,0,337.23,414.3Zm.4.11-.05,0-.1,0a.17.17,0,0,0-.1,0l-.05.06s0,0,0,.05l0,0h0a.16.16,0,0,0,.1,0,.16.16,0,0,0,.09,0s.05,0,.05,0S337.66,414.43,337.63,414.41Z" style="fill:#455a64"></path><path d="M344.34,412.82a.08.08,0,0,1,0,0s0,0,0,0a.08.08,0,0,1,0,.05l-.07.06-.09,0H344l-.07,0h0l0,0h0l0,0,0,0s0,0,0,0h-.12l.06,0h.09l0,0,0,0,.09,0h.17l.07,0h0l0,0h0Zm-.29.16.09,0,.09,0,0-.05s0,0,0-.06l0,0,0,0-.09,0-.09,0s-.05,0-.05.05,0,0,0,.06l0,0Z" style="fill:#455a64"></path><path d="M343.65,413.06h0a.06.06,0,0,0-.05,0l0,0h0l0,0h0l0,0,.12,0a.15.15,0,0,1,.11,0l.11.07,0,0h0l0,0h0l0,0,.09.05h0l0,0h0l-.08,0-.08,0h0l0,0h0l.08-.05Z" style="fill:#455a64"></path><path d="M343.3,413.16l.37.07h0l-.05,0h0s0,0,0,0l-.25,0,.08.14s0,0,0,0h0l0,0h0l-.17-.31h0l0,0h0Z" style="fill:#455a64"></path><path d="M342,414.05h0l0,0h0l-.19.11h0l0,0h0Z" style="fill:#455a64"></path><path d="M341.57,414.44h0l0,.13h0l0,0h0l-.35-.2h0l0,0h0l.27.15,0-.08h.09Z" style="fill:#455a64"></path><path d="M340.65,414.82l-.09-.06h0l0,0h0l.09,0,.12-.06h0l0,0h0l-.11.06.1.06h0l0,0h0l-.1-.05-.11.06h0l0,0h0Z" style="fill:#455a64"></path><path d="M343.7,414.41l.06.17h0l0,0h0l-.35-.2h0l.05,0h0l.22.12,0-.11v0h0l0,0h0l.21,0-.21-.12h0l.05,0h0l.35.2h0l-.05,0h0Z" style="fill:#455a64"></path><path d="M345.43,413.64l-.09,0h-.18l0,0h.09l.07,0,0,0,0,0v0h-.07l0,0-.07,0-.08,0H345l0,0,0,0a.06.06,0,0,1,0,0,.09.09,0,0,1,0-.05l.07,0,.07,0,.08,0h.13l-.05,0h-.12l0,0,0,0,0,0v0h.07l.05,0,.08,0,.07,0h.11l.05,0,0,0a0,0,0,0,1,0,0,.05.05,0,0,1,0,0Z" style="fill:#455a64"></path><path d="M342,415.24h0l0,0h0l.27-.15h0l.35.2h0l-.05,0h0l-.3-.18Z" style="fill:#455a64"></path><path d="M340.47,416.05h.26l0-.13h0l.06,0h0l0,.18.3,0h0a0,0,0,0,1,0,0l0,0h-.25l0,.12h0l-.06,0h0l0-.18-.31,0h0Z" style="fill:#455a64"></path><path d="M340.12,416.34h0l0,0h0l.28-.16h0l.35.2h0l-.05,0h0l-.29-.17Z" style="fill:#455a64"></path><path d="M343.52,414.94l-.1,0-.6-.35a.08.08,0,0,1-.05-.09.14.14,0,0,1,.08-.11l.8-.46a.25.25,0,0,1,.25,0l.6.34a.12.12,0,0,1,.05.09.14.14,0,0,1-.08.12l-.79.46A.32.32,0,0,1,343.52,414.94Zm.17-.95-.79.46,0,0,.6.34a.18.18,0,0,0,.17,0l.79-.45,0,0-.6-.35a.27.27,0,0,0-.17,0Z" style="fill:#4E44DB"></path><path id="freepik--heart--inject-38" d="M334.83,416.13a.4.4,0,0,0,.2,0h0a.55.55,0,0,0,.26-.06.16.16,0,0,0,0-.28.59.59,0,0,0,.47,0,.19.19,0,0,0,.11-.15h0a.14.14,0,0,0-.08-.12,1.6,1.6,0,0,0-1,0S334.5,415.94,334.83,416.13Z" style="fill:#4E44DB"></path><path id="freepik--heart--inject-38" d="M334.83,416.13a.4.4,0,0,0,.2,0h0a.55.55,0,0,0,.26-.06.16.16,0,0,0,0-.28.59.59,0,0,0,.47,0,.19.19,0,0,0,.11-.15h0a.14.14,0,0,0-.08-.12,1.6,1.6,0,0,0-1,0S334.5,415.94,334.83,416.13Z" style="opacity:0.25"></path><path d="M348.08,407.87c-.18.15-.56.1-.92,0a2.7,2.7,0,0,0-1.54.52c-.76.43-.82.58-.74.8s.32.42,0,.55c0,0,.47.18,1.9-.64S348.08,407.87,348.08,407.87Z" style="fill:#4E44DB"></path><path d="M348.08,407.87c-.18.15-.56.1-.92,0a2.7,2.7,0,0,0-1.54.52c-.76.43-.82.58-.74.8s.32.42,0,.55c0,0,.47.18,1.9-.64S348.08,407.87,348.08,407.87Z" style="opacity:0.2"></path><path d="M354.48,412.55l.4-.53s-.68-.39-1.23-.64a8.93,8.93,0,0,0-1.53-.61.68.68,0,0,0-.3.09L350,411.93s-.17.07-.16.16.43.42,1.13.82l1.21.7.84-.2Z" style="fill:#4E44DB"></path><path d="M351.65,411l.17-.1a.68.68,0,0,1,.3-.09,8.93,8.93,0,0,1,1.53.61c.55.25,1.23.64,1.23.64l-.28.38A23.16,23.16,0,0,0,351.65,411Z" style="opacity:0.1"></path><path d="M349.82,412.09c0-.09.16-.16.16-.16l.25-.15a17.59,17.59,0,0,0,2.49,1.69l-.56.14-1.21-.7C350.25,412.51,349.82,412.2,349.82,412.09Z" style="opacity:0.1"></path><path d="M351.69,410.79a1.38,1.38,0,0,0-.66-.89l-2.95-2a.62.62,0,0,1-.53.19,3.14,3.14,0,0,0-1.73.52c-.8.46-.72.67-.68.81s0,.28-.24.39c0,0,2.76,1.4,3.46,1.74a2.72,2.72,0,0,0,1.49.33Z" style="fill:#4E44DB"></path><path d="M352.67,411l-.3-.23c-.14-.11,0-.15,0-.15a1.41,1.41,0,0,0,.95-.24l1.07.88c.43.35.7.52.48.81,0,0-.68-.39-1.23-.64C353.36,411.24,353,411.07,352.67,411Z" style="fill:#4E44DB"></path><path d="M352.67,411l-.3-.23c-.14-.11,0-.15,0-.15a1.41,1.41,0,0,0,.95-.24l1.07.88c.43.35.7.52.48.81,0,0-.68-.39-1.23-.64C353.36,411.24,353,411.07,352.67,411Z" style="opacity:0.30000000000000004"></path><path d="M352.38,410.57a1.41,1.41,0,0,0,.95-.24s.1-.07.05-.13a3.58,3.58,0,0,0-.33-.27,1.36,1.36,0,0,0-.63.05c-.35.09-.5.19-.43.27s.11.21.17.25A.44.44,0,0,0,352.38,410.57Z" style="fill:#4E44DB"></path><path d="M352.38,410.57a1.41,1.41,0,0,0,.95-.24s.1-.07.05-.13a3.58,3.58,0,0,0-.33-.27,1.36,1.36,0,0,0-.63.05c-.35.09-.5.19-.43.27s.11.21.17.25A.44.44,0,0,0,352.38,410.57Z" style="opacity:0.15"></path><path d="M353,410a2,2,0,0,1-.84.2C352.06,410.14,352.92,409.91,353,410Z" style="opacity:0.2"></path><path d="M349.14,412.77s.49-.22.39-.56c0,0,.06-.09.25,0l.19.08a9.12,9.12,0,0,0,1,.63l1.21.7a2.17,2.17,0,0,1-1.46-.25Z" style="fill:#4E44DB"></path><path d="M349.14,412.77s.49-.22.39-.56c0,0,.06-.09.25,0l.19.08a9.12,9.12,0,0,0,1,.63l1.21.7a2.17,2.17,0,0,1-1.46-.25Z" style="opacity:0.30000000000000004"></path><path d="M349.53,412.21c.1.34-.39.56-.39.56a.42.42,0,0,1-.23,0,2.3,2.3,0,0,1-.49-.18s-.06-.15.09-.36.3-.29.44-.25.37.06.44.09A.29.29,0,0,1,349.53,412.21Z" style="fill:#4E44DB"></path><path d="M349.53,412.21c.1.34-.39.56-.39.56a.42.42,0,0,1-.23,0,2.3,2.3,0,0,1-.49-.18s-.06-.15.09-.36.3-.29.44-.25.37.06.44.09A.29.29,0,0,1,349.53,412.21Z" style="opacity:0.15"></path><path d="M348.56,412.55c.09,0,.43-.46.32-.48S348.39,412.54,348.56,412.55Z" style="opacity:0.2"></path><path d="M349.85,411.85l.37-.22a4.74,4.74,0,0,1-2.21-.8l-2.88-1.66a.32.32,0,0,0,0,.22c0,.14,0,.28-.24.39,0,0,2.76,1.4,3.46,1.74A2.72,2.72,0,0,0,349.85,411.85Z" style="opacity:0.1"></path><path d="M351.28,411l.41-.23a1.38,1.38,0,0,0-.66-.89l-2.95-2a.62.62,0,0,1-.53.19h-.2c1.18.73,2.23,1.43,2.72,1.75C351,410.4,351.29,410.64,351.28,411Z" style="opacity:0.1"></path><path d="M353.65,411.68l-.7.43-.51-.27a.06.06,0,0,1,0-.09l.12-.2a.13.13,0,0,1,.1-.07l.36-.08a.21.21,0,0,1,.14,0Z" style="fill:#4E44DB"></path><path d="M353.65,411.68l-.7.43-.51-.27a.06.06,0,0,1,0-.09l.12-.2a.13.13,0,0,1,.1-.07l.36-.08a.21.21,0,0,1,.14,0Z" style="opacity:0.15"></path><path d="M353.65,411.68a.78.78,0,0,0-.59.09c-.3.19-.11.34-.11.34Z" style="fill:#4E44DB"></path><path d="M353.65,411.68a.78.78,0,0,0-.59.09c-.3.19-.11.34-.11.34Z" style="opacity:0.25"></path><path d="M351.49,412.93l.74-.4-.47-.3a.24.24,0,0,0-.15,0l-.36.07a.23.23,0,0,0-.11.06l-.14.21a0,0,0,0,0,0,.08Z" style="fill:#4E44DB"></path><path d="M351.49,412.93l.74-.4-.47-.3a.24.24,0,0,0-.15,0l-.36.07a.23.23,0,0,0-.11.06l-.14.21a0,0,0,0,0,0,.08Z" style="opacity:0.15"></path><path d="M351.49,412.93s-.17-.16.15-.34a.74.74,0,0,1,.59-.06Z" style="fill:#4E44DB"></path><path d="M351.49,412.93s-.17-.16.15-.34a.74.74,0,0,1,.59-.06Z" style="opacity:0.25"></path><polygon points="351.05 411.31 350.83 411.43 353.63 413.05 353.85 412.92 351.05 411.31" style="opacity:0.1"></polygon><path d="M346.08,408.44l-.23.12,4.85,2.8.22-.13Z" style="opacity:0.1"></path><path d="M353.49,412.84a.17.17,0,0,1,0-.27,1.69,1.69,0,0,1,.8-.05c.18,0,.19,0,.23.1a.57.57,0,0,1,0,.22s-.08-.06-.26-.08A1.66,1.66,0,0,0,353.49,412.84Z" style="fill:#4E44DB"></path><path d="M353.49,412.84a.17.17,0,0,1,0-.27,1.69,1.69,0,0,1,.8-.05c.18,0,.19,0,.23.1a.57.57,0,0,1,0,.22s-.08-.06-.26-.08A1.66,1.66,0,0,0,353.49,412.84Z" style="opacity:0.30000000000000004"></path><path d="M353.49,412.84a.68.68,0,0,0-.46,0c-.19.1-.13.37-.09.46s.06.12.17.13a2.69,2.69,0,0,0,.38,0c-.05,0-.1-.05-.14-.15A.4.4,0,0,1,353.49,412.84Z" style="fill:#4E44DB"></path><path d="M353.49,412.84a.68.68,0,0,0-.46,0c-.19.1-.13.37-.09.46s.06.12.17.13a2.69,2.69,0,0,0,.38,0c-.05,0-.1-.05-.14-.15A.4.4,0,0,1,353.49,412.84Z" style="opacity:0.30000000000000004"></path><path d="M353.49,412.84a.4.4,0,0,0-.14.46c.07.15.13.19.2.12a1.35,1.35,0,0,1,.39-.32,2.41,2.41,0,0,1,.56-.23c.11,0,0-.07-.21-.11A1.66,1.66,0,0,0,353.49,412.84Z" style="fill:#4E44DB"></path><path d="M353.49,412.84a.4.4,0,0,0-.14.46c.07.15.13.19.2.12a1.35,1.35,0,0,1,.39-.32,2.41,2.41,0,0,1,.56-.23c.11,0,0-.07-.21-.11A1.66,1.66,0,0,0,353.49,412.84Z" style="opacity:0.45"></path><path d="M351.82,410.86l-.13-.07a8,8,0,0,0-1.84,1.06l.13.08Z" style="fill:#37474f"></path><path d="M372.13,416.64a.38.38,0,0,1-.16,0l-9.29-5.36c0-.09,0-.14.08-.19L380.23,401a.58.58,0,0,1,.3-.08.38.38,0,0,1,.16,0l9.29,5.36c0,.09,0,.14-.08.19l-17.47,10.09A.58.58,0,0,1,372.13,416.64Z" style="fill:#fafafa"></path><path d="M380.53,401l.13,0,9.29,5.37s0,0-.08.08L372.4,416.51a.57.57,0,0,1-.27.07.25.25,0,0,1-.13,0l-9.29-5.36a.24.24,0,0,1,.08-.08L380.26,401a.47.47,0,0,1,.27-.07m0-.13a.69.69,0,0,0-.34.09L362.73,411c-.17.1-.2.23-.08.3l9.29,5.37a.38.38,0,0,0,.19,0,.69.69,0,0,0,.34-.09l17.46-10.08c.17-.1.2-.23.08-.31l-9.29-5.36a.38.38,0,0,0-.19,0Z" style="fill:#e0e0e0"></path><path d="M373.14,406.58h.23a.68.68,0,0,1,.37,0l.89.51c.06,0,.05.11,0,.15l-5.09,2.94a1.28,1.28,0,0,1-.4.11h-.23a.66.66,0,0,1-.37,0l-.9-.51c-.06,0,0-.11,0-.15l5.08-2.94A1.35,1.35,0,0,1,373.14,406.58Z" style="fill:#4E44DB"></path><path d="M373.14,406.58h.23a.68.68,0,0,1,.37,0l.89.51c.06,0,.05.11,0,.15l-5.09,2.94a1.28,1.28,0,0,1-.4.11h-.23a.66.66,0,0,1-.37,0l-.9-.51c-.06,0,0-.11,0-.15l5.08-2.94A1.35,1.35,0,0,1,373.14,406.58Z" style="opacity:0.2"></path><path d="M368.52,410.3a.32.32,0,0,0,.25,0l5.08-2.93a.23.23,0,0,0,.07-.08l.75-.07a.13.13,0,0,1-.07.08l-5.09,2.94a1.28,1.28,0,0,1-.4.11h-.23A.79.79,0,0,1,368.52,410.3Z" style="fill:#4E44DB"></path><path d="M368.52,410.3a.32.32,0,0,0,.25,0l5.08-2.93a.23.23,0,0,0,.07-.08l.75-.07a.13.13,0,0,1-.07.08l-5.09,2.94a1.28,1.28,0,0,1-.4.11h-.23A.79.79,0,0,1,368.52,410.3Z" style="fill:#fff;opacity:0.6000000000000001"></path><path d="M373.89,407.19l-.9-.52a.27.27,0,0,0-.26,0l-5.08,2.94c-.08,0-.1.11,0,.15l.9.51a.27.27,0,0,0,.26,0l5.08-2.93C373.93,407.29,374,407.22,373.89,407.19Z" style="fill:#4E44DB"></path><path d="M366.93,410.17l.23,0a.94.94,0,0,1,.37,0l.89.52c.06,0,.05.1,0,.15l-1.29.75a1.29,1.29,0,0,1-.41.1l-.22,0a.83.83,0,0,1-.38,0l-.89-.52c-.06,0,0-.1,0-.15l1.29-.74A1.11,1.11,0,0,1,366.93,410.17Z" style="fill:#e0e0e0"></path><path d="M366.1,411.7a.34.34,0,0,0,.24,0l1.3-.75a.13.13,0,0,0,.07-.08l.75-.06a.13.13,0,0,1-.08.08l-1.29.75a1.29,1.29,0,0,1-.41.1l-.22,0A.94.94,0,0,1,366.1,411.7Z" style="fill:#ebebeb"></path><path d="M366.1,411.66l-.89-.51,0-.1,1.3-.74a.23.23,0,0,1,.14,0l1,.53,0,.1-1.29.74a.37.37,0,0,1-.15,0Z" style="fill:#fafafa"></path><path d="M366.68,410.3h.07l.9.52a.12.12,0,0,1,0,0l-1.3.74a.25.25,0,0,1-.13,0l-.06,0-.9-.51,0,0,1.29-.75a.31.31,0,0,1,.13,0m0-.07a.33.33,0,0,0-.16,0l-1.29.74c-.08.05-.1.12,0,.15l.89.52.1,0a.29.29,0,0,0,.16,0l1.3-.75c.08-.05.1-.11,0-.15l-.89-.51a.15.15,0,0,0-.1,0Z" style="fill:#e0e0e0"></path><path d="M379.86,410.64l-6.92,4a.83.83,0,0,1-.73.06h0c-.17-.1-.12-.29.11-.43l6.92-4a.77.77,0,0,1,.73-.06h0C380.14,410.32,380.1,410.51,379.86,410.64Z" style="fill:#4E44DB"></path><path d="M379.86,410.64l-6.92,4a.83.83,0,0,1-.73.06h0c-.17-.1-.12-.29.11-.43l6.92-4a.77.77,0,0,1,.73-.06h0C380.14,410.32,380.1,410.51,379.86,410.64Z" style="opacity:0.25"></path><path d="M378.23,409.94l-.17.05-.16,0h-.13l-.09,0s0,0,0,0l0,0,.11-.06,0,0H378a.56.56,0,0,0,.17-.07l.07,0,0-.05a.08.08,0,0,0,0,0l0,0-.07,0h-.09l-.13.05-.17.06a1.21,1.21,0,0,1-.2.07l-.16,0h-.14l-.12-.05a.16.16,0,0,1-.07-.07.12.12,0,0,1,0-.08.19.19,0,0,1,.05-.1,1.14,1.14,0,0,1,.11-.11l-.09-.05v0s0,0,0,0l.12-.07h.08l.09.05.17-.06.16,0H378l.13,0v0l0,0-.11.06-.05,0h-.18l-.09,0-.11.06-.08.05-.06.06s0,0,0,.05a.05.05,0,0,0,0,0l.08,0,.09,0,.14-.05.18-.07.18-.06.15,0h.13a.29.29,0,0,1,.13.05.16.16,0,0,1,.07.07.11.11,0,0,1,0,.08.36.36,0,0,1,0,.09l-.09.1.09.05v0l0,0-.12.07h-.08Z" style="fill:#455a64"></path><path d="M377.13,410.22h0v0l-.11.33v0l0,0-.12.07h-.08l-.88-.51s0,0,0,0l0,0,.13-.07h.07l.67.39.08-.22,0,0h.2Z" style="fill:#455a64"></path><path d="M375.47,411.12l-.06,0-.06,0-.06,0-.06,0a.63.63,0,0,1-.12-.1.17.17,0,0,1,0-.11.21.21,0,0,1,.05-.12.92.92,0,0,1,.17-.13,1,1,0,0,1,.22-.09l.2,0,.19,0,.17.07.12.07.12.07a.4.4,0,0,1,.12.1.15.15,0,0,1,0,.11.19.19,0,0,1,0,.12.92.92,0,0,1-.17.13,1,1,0,0,1-.22.09l-.21,0-.18,0Zm.4-.5a.42.42,0,0,0-.21-.06.41.41,0,0,0-.2.06c-.08,0-.11.08-.11.12a.21.21,0,0,0,.1.12l.11.07.12.06a.56.56,0,0,0,.2.06.42.42,0,0,0,.21-.06c.07,0,.11-.08.1-.12s0-.08-.09-.12l-.11-.07Z" style="fill:#455a64"></path><path d="M374.74,411.09h-.08l-.13-.07,0,0,0,0,.15-.08h.08l.13.07s0,0,0,0,0,0,0,0Z" style="fill:#455a64"></path><path d="M375.16,411.66a0,0,0,0,1,0,0l0,0-.58.34h-.08l-.1-.05a0,0,0,0,1,0,0s0,0,0,0l.43-.25-.15-.11-.07.06-.06,0-.18.08-.2,0H374a.44.44,0,0,1-.16-.06.25.25,0,0,1-.12-.1.11.11,0,0,1,0-.11.23.23,0,0,1,.07-.11.85.85,0,0,1,.14-.1l.21-.1.18,0h.16a.4.4,0,0,1,.13,0l0,0,0,0-.13.07h-.08l-.08,0h-.07l-.08,0-.07,0a.19.19,0,0,0-.1.1s0,.07.06.1a.33.33,0,0,0,.15,0,.6.6,0,0,0,.19-.06l.07,0,0,0v0l0,0,.15-.08,0,0h0Z" style="fill:#455a64"></path><path d="M373.24,411.76h0l.05.27a.91.91,0,0,1,.38-.12.61.61,0,0,1,.19,0,.38.38,0,0,1,.16.06.25.25,0,0,1,.11.09.14.14,0,0,1,0,.11.25.25,0,0,1-.07.12l-.14.11-.18.08-.2,0h-.19a.43.43,0,0,1-.17-.06s-.05,0-.06-.05l0-.05a.14.14,0,0,1,0-.06.07.07,0,0,1,0-.05l-.07-.38v0l0,0,.14-.08h.08Zm.58.36a.33.33,0,0,0-.17,0,.44.44,0,0,0-.19.07.23.23,0,0,0-.11.11s0,.07.06.09a.33.33,0,0,0,.17,0,.6.6,0,0,0,.19-.06c.06,0,.1-.07.11-.11S373.87,412.15,373.82,412.12Z" style="fill:#455a64"></path><path d="M373.06,407.52H373l-.7-.15h0a0,0,0,0,1,0,0l.06,0h.05l.13,0,.28-.16-.05-.07h0v0l.07,0h0l.26.41h0a0,0,0,0,1,0,0Zm-.39-.17.32.07-.12-.18Z" style="fill:#455a64"></path><path d="M372.44,407.73l-.06,0-.05,0h-.07l.16.09h0v0l-.07,0h0l-.5-.29h0v0l.07,0h.06v0l0,0,0,0,.1,0h.2l.08,0h0l0,0a.08.08,0,0,1,.05.05.06.06,0,0,1,0,.05.14.14,0,0,1,0,.06Zm-.11-.16,0,0a.15.15,0,0,0-.11,0l-.09,0s0,0,0,.05,0,0,0,.06h0l0,0,.09,0a.29.29,0,0,0,.1,0,.13.13,0,0,0,.05-.06A.07.07,0,0,0,372.33,407.57Z" style="fill:#455a64"></path><path d="M371.89,408l-.05,0h-.13l.17.09v0h0l-.06,0h-.05l-.5-.29h0l.06,0h.06v0a0,0,0,0,1,0,0l0,0,0,0a.29.29,0,0,1,.1,0l.1,0h.09l.09,0,0,0h0l0,.05a.1.1,0,0,1,0,.12Zm-.1-.15,0,0a.23.23,0,0,0-.11,0l-.09,0a.17.17,0,0,0-.06.06.09.09,0,0,0,0,.05l0,0h0a.16.16,0,0,0,.1,0l.09,0a.1.1,0,0,0,.06-.05A.07.07,0,0,0,371.79,407.89Z" style="fill:#455a64"></path><path d="M370.93,408.3l-.06,0-.06,0-.06,0h0l0,0h0s0,0,0,0l.07,0a.52.52,0,0,1,.16-.06.28.28,0,0,1,.15,0l.16.09.06,0h0l.05,0h0l-.06,0,.13.07s0,0,0,0,0,0,0,0l-.06,0h-.05l-.12-.07-.11.07H371l0,0h0a0,0,0,0,1,0,0l.12-.07Z" style="fill:#455a64"></path><path d="M370.75,408.7l-.1,0-.1,0h-.1l-.08,0h0l0,0h0a.12.12,0,0,1-.05-.05,0,0,0,0,1,0-.05.09.09,0,0,1,0-.06.22.22,0,0,1,.07-.06l.1,0,.11,0h.09l.09,0h.08l0,0a.13.13,0,0,1,0,.06.09.09,0,0,1,0,.06A.28.28,0,0,1,370.75,408.7Zm-.27,0,0,0h.05l0,0,0,0,0,0v0a0,0,0,0,0,0,0l0,0h-.07l-.05,0h-.1l0,0,0,0,0,0v0s0,0,0,0h.07Z" style="fill:#455a64"></path><path d="M369.8,408.78h0l.49.29h0l-.26.15-.11.05h-.18l-.06,0,0,0,0,0v0h-.1l-.09,0-.05,0s0,0,0-.05a.07.07,0,0,1,0-.06.13.13,0,0,1,.07-.05Zm0,.11-.17.1s-.05,0-.05.05a.05.05,0,0,0,0,0h.07l.08,0,.17-.09Zm0,.31h.06a.13.13,0,0,0,.08,0l.16-.09L370,409l-.15.09-.06.05S369.82,409.19,369.84,409.2Z" style="fill:#455a64"></path><path d="M369.52,409.29s0,0,0,0,0,0,0,0,0,0,0,0l-.07.06-.09,0h-.18l-.09,0-.22-.13a0,0,0,0,0,0,0v0l.07,0H369l0,0a.07.07,0,0,1,0-.06.14.14,0,0,1,.07-.06l.07,0h.15l.06,0a.08.08,0,0,1,0,.07.22.22,0,0,1-.08.09l-.12.1h.07a.11.11,0,0,0,.07,0l0,0v0h0l.08,0s0,0,0,0A0,0,0,0,1,369.52,409.29Zm-.36,0,0,0a.05.05,0,0,0,0,0,0,0,0,0,0,0,0s0,0,0,0h0l.1-.08,0,0v0h-.05Z" style="fill:#455a64"></path><path d="M368.45,409.47l0,0v0a0,0,0,0,0,0,0l0,0h0v0l0,0,.05,0,.09,0h.2l.08,0,0,0h0l0,.05a.14.14,0,0,1,0,.06.09.09,0,0,1,0,.05.17.17,0,0,1-.06.06l-.05,0,0,0h-.06l-.07,0h0l-.36-.2c-.06,0-.09-.08-.08-.12s.05-.08.12-.12l.09,0,.09,0h.09l.06,0h0l-.06,0h-.11Zm.4.11,0,0a.23.23,0,0,0-.11,0,.12.12,0,0,0-.09,0s-.05,0-.06.05a.09.09,0,0,0,0,.06l0,0h0a.16.16,0,0,0,.1,0,.16.16,0,0,0,.09,0s.05,0,.05-.05S368.88,409.61,368.85,409.58Z" style="fill:#455a64"></path><path d="M375.56,408l0,.05s0,0,0,0,0,0,0,.05a.22.22,0,0,1-.07.06l-.09,0-.09,0h-.08l-.07,0,0,0h0l0,0h0l0,0a.06.06,0,0,1,0,0h-.11l.06,0h.08l0,0,0,0,.09,0h.09a.21.21,0,0,1,.08,0l.07,0h0l0,0h.05Zm-.29.17a.14.14,0,0,0,.09,0l.09,0s.05,0,.05-.06,0,0,0,0l0,0-.05,0a.15.15,0,0,0-.09,0l-.09,0s-.05,0-.05.05a.05.05,0,0,0,0,.05l.05,0Z" style="fill:#455a64"></path><path d="M374.87,408.24h-.09l0,0h0l0,0h0l.05,0,.11,0a.23.23,0,0,1,.11,0l.11.07,0,0h0l0,0h0l0,0,.09,0h0l-.05,0h0l-.09-.05-.08.05h0l0,0h0l.08-.05Z" style="fill:#455a64"></path><path d="M374.52,408.34l.37.07h0l-.05,0h0l-.25,0,.08.15h0l-.05,0h0l-.17-.3h0s0,0,0,0l0,0h0Z" style="fill:#455a64"></path><path d="M373.21,409.23h0l0,0h0l-.2.11h0l0,0h0Z" style="fill:#455a64"></path><path d="M372.79,409.62h0l-.05.13h0l-.05,0h0l-.35-.2h0l.05,0h0l.27.15,0-.08h.09Z" style="fill:#455a64"></path><path d="M371.87,410l-.09-.06h0l.05,0h0l.1.06.11-.06h0l0,0h0L372,410l.1.06h0l-.05,0h0l-.1,0-.11.06h0l0,0h0Z" style="fill:#455a64"></path><path d="M374.92,409.59l.06.17h0l0,0h0l-.35-.2h0a0,0,0,0,1,0,0l0,0h0l.22.12,0-.12h0l0,0h0l.21,0-.21-.12h0a0,0,0,0,1,0,0l.05,0h0l.35.2h0l-.05,0h0Z" style="fill:#455a64"></path><path d="M376.65,408.82l-.08,0-.08,0h-.11l0,0h.09l.07,0,0,0,0,0v0s0,0,0,0h-.06l-.05,0-.07,0-.08,0h-.12l-.05,0,0,0a0,0,0,0,1,0,0s0,0,0-.05,0,0,.07-.05l.07,0,.08,0h.07l.06,0h0l-.05,0s0,0,0,0h-.1l-.05,0,0,0,0,0s0,0,0,0h.08l.05,0,.08,0,.07,0h.11l.05,0,0,0a.06.06,0,0,1,0,0l0,0S376.67,408.8,376.65,408.82Z" style="fill:#455a64"></path><path d="M373.23,410.42h0l0,0h0l.28-.16h0l.35.21h0l-.05,0h0l-.3-.17Z" style="fill:#455a64"></path><path d="M371.69,411.23h0l.22,0,0-.13h0l.06,0h0l0,.18.3,0h0l-.05,0h0l-.21,0,0,.13h0v0l-.06,0h0l0-.18-.31,0h0Z" style="fill:#455a64"></path><path d="M371.34,411.51h0l0,0h0l.28-.16h0l.35.2h0l-.05,0h0l-.29-.17Z" style="fill:#455a64"></path><path d="M374.74,410.12a.15.15,0,0,1-.1,0l-.6-.34a.11.11,0,0,1-.05-.09.15.15,0,0,1,.08-.12l.8-.45a.25.25,0,0,1,.25,0l.6.34a.1.1,0,0,1,.06.09.17.17,0,0,1-.09.12l-.79.46A.47.47,0,0,1,374.74,410.12Zm.17-.95-.79.46a.07.07,0,0,0,0,0l.61.35a.19.19,0,0,0,.16,0l.79-.46a.07.07,0,0,0,0,0l-.6-.35A.21.21,0,0,0,374.91,409.17Z" style="fill:#4E44DB"></path><path id="freepik--heart--inject-38" d="M366.05,411.3a.31.31,0,0,0,.2.05h0a.46.46,0,0,0,.26-.07.16.16,0,0,0,0-.27.64.64,0,0,0,.47,0,.19.19,0,0,0,.11-.15h0a.13.13,0,0,0-.08-.12,1.6,1.6,0,0,0-1,0S365.72,411.11,366.05,411.3Z" style="fill:#4E44DB"></path><path id="freepik--heart--inject-38" d="M366.05,411.3a.31.31,0,0,0,.2.05h0a.46.46,0,0,0,.26-.07.16.16,0,0,0,0-.27.64.64,0,0,0,.47,0,.19.19,0,0,0,.11-.15h0a.13.13,0,0,0-.08-.12,1.6,1.6,0,0,0-1,0S365.72,411.11,366.05,411.3Z" style="opacity:0.25"></path><path d="M380.57,402.38s-.09-.15-.85.19a8.11,8.11,0,0,0-1.62,1c-.25.19-.33.19-.39.14s-.35.08-.69.26a10.27,10.27,0,0,0-1.38,1c-.34.3-.37.38-.35.42s.17,0-.06.22-.32.16-.24.2,1,.33,3.61-1.2S380.76,402.57,380.57,402.38Z" style="fill:#4E44DB"></path><path d="M380.57,402.38s-.09-.15-.85.19a8.11,8.11,0,0,0-1.62,1c-.25.19-.33.19-.39.14s-.35.08-.69.26a10.27,10.27,0,0,0-1.38,1c-.34.3-.37.38-.35.42s.17,0-.06.22-.32.16-.24.2,1,.33,3.61-1.2S380.76,402.57,380.57,402.38Z" style="opacity:0.30000000000000004"></path><path d="M383.17,406.09c-.05-.15-.56-1-.77-1.46a12,12,0,0,0-.65-1.19,2.7,2.7,0,0,0-1.18-1.06,5.9,5.9,0,0,0-1,.51c0,.09.81-.26.84-.15s-.57.35-1.05.57a6.74,6.74,0,0,0-1.51,1c-.32.31-.66.51-.74.45s0-.28-.09-.25a4.53,4.53,0,0,0-.89.6c-.4.32-.94.71-1.14.64a7.23,7.23,0,0,0,1.15.42c.62.16,2.66.65,3.11.72s1.75.32,2,.31Z" style="fill:#4E44DB"></path><path d="M379.26,405.57c.62.2,1.95.82,1.95.82l-1.29-.61a8.68,8.68,0,0,0-1.59-.59,5.64,5.64,0,0,1-1.22-.42c-.08,0,0-.28-.09-.25a1.21,1.21,0,0,0-.19.1.6.6,0,0,0,.23.28C377.27,405,378.63,405.37,379.26,405.57Z" style="opacity:0.15"></path><path d="M380.51,402.62l-.21-.12a3,3,0,0,0-.73.39c0,.09.81-.26.84-.15a2.44,2.44,0,0,1,.54.84,4.47,4.47,0,0,0,1,1.15,4.21,4.21,0,0,1-.83-1.16A2.18,2.18,0,0,0,380.51,402.62Z" style="opacity:0.15"></path><path d="M377.11,404.77c-.07,0,0-.22-.06-.25h0l.35.15C377.27,404.76,377.15,404.8,377.11,404.77Z" style="opacity:0.30000000000000004"></path><path d="M379.79,403.12a1.52,1.52,0,0,0-.21-.22c.09,0,.8-.27.83-.16S380.14,403,379.79,403.12Z" style="opacity:0.30000000000000004"></path><path d="M382.37,405.73a4,4,0,0,1-1.32-1.07,5,5,0,0,0-1.23-1.13,10.23,10.23,0,0,1,.92,1A3.48,3.48,0,0,0,382.37,405.73Z" style="opacity:0.15"></path><path d="M380.4,406.32a6.7,6.7,0,0,0-1.62-.53,11,11,0,0,1-2.14-.42,4.71,4.71,0,0,0,1.81.43A10.85,10.85,0,0,1,380.4,406.32Z" style="opacity:0.15"></path><path d="M383.46,406.25l-.29-.16a9.05,9.05,0,0,0-1.94,1.12l.29.16Z" style="fill:#37474f"></path><path d="M383.78,408.74s0-.34.72-.77a3.21,3.21,0,0,1,1.36-.44,2.21,2.21,0,0,0-2.24-.09C382.48,408.1,383.78,408.74,383.78,408.74Z" style="fill:#4E44DB"></path><path d="M383.78,408.74s0-.34.72-.77a3.21,3.21,0,0,1,1.36-.44,2.21,2.21,0,0,0-2.24-.09C382.48,408.1,383.78,408.74,383.78,408.74Z" style="opacity:0.30000000000000004"></path><path d="M383.78,408.74s0-.34.72-.77a3.21,3.21,0,0,1,1.36-.44h0l-.14-.09h0a3.17,3.17,0,0,0-1.36.43c-.72.42-.72.76-.72.77h0Z" style="opacity:0.30000000000000004"></path><path d="M386.13,407.28s-1.27-.63-1.58-.74-.95-.21-1.09-.29a7.61,7.61,0,0,0-1.95,1.12,8.37,8.37,0,0,0,.6.65,9.34,9.34,0,0,1,1.18.81l.49-.09s-.92-.64.05-1.2a2.29,2.29,0,0,1,2,0Z" style="fill:#4E44DB"></path><path d="M381.83,407.13l-.32.24a8.37,8.37,0,0,0,.6.65l.13.08A.83.83,0,0,0,381.83,407.13Z" style="opacity:0.1"></path><path d="M384.85,406.66l-.3-.12c-.3-.11-.95-.21-1.09-.29l-.44.19A3.06,3.06,0,0,0,384.85,406.66Z" style="opacity:0.1"></path><path d="M380,407.44c-.09,0,.39-.35.48-.31l1.37.64h0a1.48,1.48,0,0,0,.25.25,9.34,9.34,0,0,1,1.18.81,1.65,1.65,0,0,1-.94-.18C382,408.48,380,407.44,380,407.44Z" style="fill:#4E44DB"></path><path d="M380,407.44c-.09,0,.39-.35.48-.31l1.37.64h0a1.48,1.48,0,0,0,.25.25,9.34,9.34,0,0,1,1.18.81,1.65,1.65,0,0,1-.94-.18C382,408.48,380,407.44,380,407.44Z" style="opacity:0.15"></path><path d="M380,407.44l.12.06h0c-.07,0,.42-.34.48-.31h0l-.12-.06C380.4,407.09,379.92,407.4,380,407.44Z" style="opacity:0.15"></path><path d="M384.33,406.47l-1.37-.84c-.08,0,.45-.35.53-.31l2,1.16c.43.25.85.57.64.8,0,0-1.27-.63-1.58-.74Z" style="fill:#4E44DB"></path><path d="M384.33,406.47l-1.37-.84c-.08,0,.45-.35.53-.31l2,1.16c.43.25.85.57.64.8,0,0-1.27-.63-1.58-.74Z" style="opacity:0.15"></path><path d="M383,405.63l.11.07h0c-.06,0,.47-.35.53-.31l-.11-.07C383.41,405.28,382.88,405.59,383,405.63Z" style="opacity:0.15"></path><path d="M321,416.72c-.32.24-.28.58.1.8l32.31,18.63a1.58,1.58,0,0,0,.76.18V440a1.49,1.49,0,0,1-.75-.18l-32.32-18.63a1.7,1.7,0,0,1-.76-1.31V418A1.66,1.66,0,0,1,321,416.72Z" style="fill:#263238"></path><path d="M386.1,399a.53.53,0,0,0,.46,0,.15.15,0,0,0,0-.27.53.53,0,0,0-.46,0A.15.15,0,0,0,386.1,399Z" style="fill:#263238"></path><path d="M386.83,401a1,1,0,0,0,.91,0c.26-.15.26-.38,0-.53a1,1,0,0,0-.91,0A.28.28,0,0,0,386.83,401Z" style="fill:#263238"></path><path d="M386.19,400.11c.17-.1.16-.26,0-.36l-3-1.74a.7.7,0,0,0-.63,0c-.16.1-.16.26,0,.36l3,1.74A.7.7,0,0,0,386.19,400.11Z" style="fill:#263238"></path></g></g><path d="M329,370.86s26.67,10.68,30.82,12.63a11.27,11.27,0,0,1,4.13,2.88c1.36,1.39,2.77,2.73,4.19,4.07s3.1,2.53,4,4.21a3.47,3.47,0,0,1,.28,3c-.23.53-.64,1-.87,1.5-.47,1.1-.17,2.57-1.07,3.38a4,4,0,0,1-1.06.56,2.14,2.14,0,0,0-1,.69c-.65,1,1.08,2.94,1.56,3.75.88,1.46,1.75,2.93,2.63,4.4a4.14,4.14,0,0,1,.55,1.21,1.37,1.37,0,0,1-.27,1.25c-1,1-2.41-.26-3-1l-8-9.87a7.16,7.16,0,0,0-1.63-1.62c-.49-.31-1.54-.73-2.08-.29s-.22,1.3,0,1.79a11.8,11.8,0,0,1,1,3,5.87,5.87,0,0,1-.26,3.11,1.52,1.52,0,0,1-.43.65,1.06,1.06,0,0,1-1,.14,1.81,1.81,0,0,1-.8-.59,8.47,8.47,0,0,1-1.07-2.63c-.7-1.92-2.2-3.39-3.24-5.12s-1-7.11-2.56-8.75S324.41,386.69,322,386c-5.94-1.81-6.34-3.19-7.4-5.42" style="fill:#ffa8a7"></path></g></g><g id="freepik--speech-bubble--inject-38"><g id="freepik--speech-bubble--inject-38"><g id="freepik--speech-bubble--inject-38"><path d="M373.5,353.49l-3.26-6.12,2.62-7.57v-4.62l-8,4.62v4.63l3.44,6a.49.49,0,0,0,.24.21h0Z" style="fill:#4E44DB"></path><path d="M373.5,353.49l-3.26-6.12,2.62-7.57v-4.62l-8,4.62v4.63l3.44,6a.49.49,0,0,0,.24.21h0Z" style="opacity:0.2"></path><path d="M392.64,298.38a5.32,5.32,0,0,0-2.4-4.17l-2-1.13a5.34,5.34,0,0,0-4.8,0l-30,17.36a5.31,5.31,0,0,0-2.4,4.17v33a5.31,5.31,0,0,0,2.4,4.17l2,1.13a5.36,5.36,0,0,0,4.81,0l9.65-5.58,3.44,6a.52.52,0,0,0,.93-.09l3.63-10.5,12.36-7.15a5.31,5.31,0,0,0,2.4-4.17Z" style="fill:#4E44DB"></path><path d="M351.06,347.63a5.31,5.31,0,0,0,2.4,4.17l2,1.13a5.39,5.39,0,0,0,4.4.19c-1.14.43-2-.21-2-1.58v-33a4.91,4.91,0,0,1,.71-2.37l-6.77-3.9a4.94,4.94,0,0,0-.7,2.37Z" style="opacity:0.2"></path><path d="M392.57,297.7c-.28-1-1.21-1.35-2.32-.71l-30,17.36a4.7,4.7,0,0,0-1.7,1.8l-6.76-3.91a4.87,4.87,0,0,1,1.69-1.79l30-17.36a5.3,5.3,0,0,1,4.81,0l2,1.13A5.33,5.33,0,0,1,392.57,297.7Z" style="fill:#fff;opacity:0.5"></path></g><path d="M365.12,326.7a15.29,15.29,0,0,1,1.26-5.94h0v0a10.43,10.43,0,0,1,3.8-4.85c2.59-1.53,4.75,1.57,5.09,5.23.31-4,2.43-9.66,5-11.17a2.83,2.83,0,0,1,3.82.37v0h0a6.8,6.8,0,0,1,1.31,4.43c0,6.19-3.7,11.79-6.81,17.69l-3.35,5.7L372,336.32C368.89,334.11,365.15,332.89,365.12,326.7Z" style="fill:#fafafa"></path></g></g></svg>